<?xml version="1.0" encoding="utf-8"?>
<!-- Generator: Adobe Illustrator 19.0.0, SVG Export Plug-In . SVG Version: 6.00 Build 0)  -->
<svg version="1.1" id="Layer_1" xmlns="http://www.w3.org/2000/svg" xmlns:xlink="http://www.w3.org/1999/xlink" x="0px" y="0px"
	 viewBox="-168 194.6 221.5 173.4" style="enable-background:new -168 194.6 221.5 173.4;" xml:space="preserve">
<style type="text/css">
	.st0{fill:#333717;}
	.st1{fill:none;stroke:#F5ECDA;stroke-width:4;stroke-miterlimit:10;stroke-dasharray:12;}
	.st2{fill:#F5ECDA;}
</style>
<polygon id="XMLID_17_" class="st0" points="-9.6,368 -168,368 -104.9,194.6 53.5,194.6 "/>
<polygon id="XMLID_18_" class="st1" points="-18.7,356.6 -151.5,356.6 -88.2,182.4 44.6,182.4 "/>
<g id="XMLID_19_">
	<path id="XMLID_20_" class="st2" d="M-60.8,223.1c2-0.3,3.4,0,4.3,0.2c5.2,1.1,8.3,5.2,7.6,10c-0.5,3.3-2.4,5.5-5.6,6.9
		c0.3-0.6,0.5-1.1,0.8-1.5c1-1.6,1.2-3.3,1-5.1c-0.5-3.2-3.6-5-6.5-3.7c-2.3,1-4,4-3.7,6.4c0.3,2.1,1.3,3.9,2.5,5.5
		c2.7,3.4,6,6.2,9.5,8.7c5.1,3.7,10.2,7.5,14.4,12.3c5.1,5.7,9,12.1,10.7,19.6c0.4,1.8,0.6,3.5,0.9,5.3c0,1.8,0,3.7,0,5.5
		c-0.1,0.2-0.1,0.5-0.2,0.7c-0.4,2.2-0.7,4.5-1.3,6.7c-4,13.9-12.8,22.8-27.1,26c-1.9,0.4-3.8,0.6-5.7,0.9c-1.8,0-3.7,0-5.5,0
		c-0.2-0.1-0.4-0.2-0.6-0.2c-3.4-0.3-6.7-1.2-9.9-2.5c-11.3-4.8-19-13-22.1-25c-0.4-1.7-0.6-3.5-1-5.3c0-1.8,0-3.6,0-5.3
		c0.1-0.3,0.2-0.5,0.2-0.8c0.5-5.3,2.1-10.3,4.6-14.9c4.4-7.9,10.8-13,20-13.5c6.3-0.4,11.3,1.8,14.7,8c3.7,6.9,1.5,13.5-4.5,18.1
		c-1,0.8-2.2,1.3-3.7,1.3c0.3-0.4,0.5-0.6,0.6-0.9c1.8-3,3.1-6.2,2.5-9.8c-0.5-3.6-2.7-6.2-5.9-6.7c-2.2-0.4-4.1,0.4-5.8,1.7
		c-5.1,3.7-9.6,13.6-6.5,22.3c3,8.1,13.8,15.5,23.7,13.4c5.6-1.2,10.6-3.5,14.1-8.2c4.8-6.6,5.4-13.9,2.9-21.5
		c-1.8-5.5-5.3-10.1-9.5-14.1s-8.5-7.8-12.9-11.6c-5.5-4.7-8.6-10.4-7.7-17.8c0.5-4.4,2.5-7.5,6.4-9.8
		C-63.2,223.5-61.9,223.2-60.8,223.1z"/>
</g>
</svg>
