<?xml version="1.0" encoding="utf-8"?>
<!-- Generator: Adobe Illustrator 19.0.0, SVG Export Plug-In . SVG Version: 6.00 Build 0)  -->
<svg version="1.1" id="Layer_1" xmlns="http://www.w3.org/2000/svg" xmlns:xlink="http://www.w3.org/1999/xlink" x="0px" y="0px"
	 viewBox="0 0 397.4 560" style="enable-background:new 0 0 397.4 560;" xml:space="preserve">
<g id="XMLID_19_">
	<path id="XMLID_20_" d="M204.1,5.4c10.6-1.6,17.9,0,22.7,1.1c27.5,5.8,43.8,27.5,40.1,52.8c-2.6,17.4-12.7,29-29.6,36.4
		c1.6-3.2,2.6-5.8,4.2-7.9c5.3-8.4,6.3-17.4,5.3-26.9c-2.6-16.9-19-26.4-34.3-19.5c-12.1,5.3-21.1,21.1-19.5,33.8
		c1.6,11.1,6.9,20.6,13.2,29c14.3,17.9,31.7,32.7,50.2,45.9c26.9,19.5,53.8,39.6,76,64.9c26.9,30.1,47.5,63.9,56.5,103.5
		c2.1,9.5,3.2,18.5,4.8,28c0,9.5,0,19.5,0,29c-0.5,1.1-0.5,2.6-1.1,3.7c-2.1,11.6-3.7,23.8-6.9,35.4
		c-21.1,73.4-67.6,120.4-143.1,137.3c-10,2.1-20.1,3.2-30.1,4.8c-9.5,0-19.5,0-29,0c-1.1-0.5-2.1-1.1-3.2-1.1
		c-17.9-1.6-35.4-6.3-52.3-13.2c-59.7-25.3-100.3-68.6-116.7-132c-2.1-9-3.2-18.5-5.3-28c0-9.5,0-19,0-28c0.5-1.6,1.1-2.6,1.1-4.2
		c2.6-28,11.1-54.4,24.3-78.7c23.2-41.7,57-68.6,105.6-71.3c33.3-2.1,59.7,9.5,77.6,42.2c19.5,36.4,7.9,71.3-23.8,95.6
		c-5.3,4.2-11.6,6.9-19.5,6.9c1.6-2.1,2.6-3.2,3.2-4.8c9.5-15.8,16.4-32.7,13.2-51.7c-2.6-19-14.3-32.7-31.1-35.4
		c-11.6-2.1-21.6,2.1-30.6,9C99,281.5,75.2,333.8,91.6,379.7c15.8,42.8,72.9,81.8,125.1,70.7c29.6-6.3,56-18.5,74.4-43.3
		c25.3-34.8,28.5-73.4,15.3-113.5c-9.5-29-28-53.3-50.2-74.4c-22.2-21.1-44.9-41.2-68.1-61.2c-29-24.8-45.4-54.9-40.6-94
		c2.6-23.2,13.2-39.6,33.8-51.7C191.4,7.5,198.3,5.9,204.1,5.4z"/>
</g>
</svg>
