<?xml version="1.0" encoding="utf-8"?>
<!-- Generator: Adobe Illustrator 19.0.0, SVG Export Plug-In . SVG Version: 6.00 Build 0)  -->
<svg version="1.1" id="Layer_1" xmlns="http://www.w3.org/2000/svg" xmlns:xlink="http://www.w3.org/1999/xlink" x="0px" y="0px"
	 viewBox="0 0 332.1 245.5" style="enable-background:new 0 0 332.1 245.5;" xml:space="preserve">
<style type="text/css">
	.st0{fill:#421026;}
	.st1{fill:none;stroke:#F5EDDB;stroke-width:1.5;stroke-miterlimit:10;stroke-dasharray:6,4;}
	.st2{fill:#B59B59;}
</style>
<polygon id="XMLID_109_" class="st0" points="317.7,183.9 82.5,170.7 96.9,2.8 332.1,16 "/>
<polygon id="XMLID_108_" class="st1" points="298.6,165.8 103.5,154.9 115.1,19.5 310.2,30.4 "/>
<rect id="XMLID_2_" x="22.9" y="28.8" transform="matrix(0.9566 -0.2914 0.2914 0.9566 -30.2729 43.6028)" class="st2" width="216.8" height="189.2"/>
<rect id="XMLID_107_" x="40.7" y="46.6" transform="matrix(0.9541 -0.2994 0.2994 0.9541 -30.796 44.7308)" class="st1" width="179.9" height="152.6"/>
<rect id="XMLID_112_" x="420" y="352.6" transform="matrix(0.9569 0.2904 -0.2904 0.9569 151.7841 -126.5131)" class="st0" width="164.4" height="191.1"/>
<rect id="XMLID_111_" x="436.2" y="367.5" transform="matrix(0.9569 0.2904 -0.2904 0.9569 151.4874 -126.4756)" class="st1" width="131.4" height="159.5"/>
<polygon id="XMLID_110_" class="st2" points="467.9,555.4 171.9,555.4 212.3,367.9 508.3,367.9 "/>
<polygon id="XMLID_113_" class="st1" points="448.9,537.5 200.6,537.5 232.7,388.8 480.9,388.8 "/>
</svg>
