<?xml version="1.0" encoding="utf-8"?>
<!-- Generator: Adobe Illustrator 19.0.0, SVG Export Plug-In . SVG Version: 6.00 Build 0)  -->
<svg version="1.1" id="Layer_1" xmlns="http://www.w3.org/2000/svg" xmlns:xlink="http://www.w3.org/1999/xlink" x="0px" y="0px"
	 viewBox="0 0 438.9 230.6" style="enable-background:new 0 0 438.9 230.6;" xml:space="preserve">
<style type="text/css">
	.st0{fill:#421026;}
	.st1{fill:none;stroke:#F5EDDB;stroke-width:1.5;stroke-miterlimit:10;stroke-dasharray:6,4;}
	.st2{fill:#B59B59;}
</style>
<polygon id="XMLID_109_" class="st0" points="1037.4,352.9 802.2,339.7 816.7,171.9 1051.8,185.1 "/>
<polygon id="XMLID_108_" class="st1" points="1018.3,334.9 823.2,323.9 834.8,188.6 1029.9,199.5 "/>
<rect id="XMLID_2_" x="742.6" y="197.9" transform="matrix(0.9566 -0.2914 0.2914 0.9566 -48.3053 260.642)" class="st2" width="216.8" height="189.2"/>
<rect id="XMLID_107_" x="760.4" y="215.6" transform="matrix(0.9541 -0.2994 0.2994 0.9541 -48.401 267.944)" class="st1" width="179.9" height="152.6"/>
<rect id="XMLID_112_" x="250.3" y="19.8" transform="matrix(0.9569 0.2904 -0.2904 0.9569 47.8113 -91.5896)" class="st0" width="164.4" height="191.1"/>
<rect id="XMLID_111_" x="266.6" y="34.6" transform="matrix(0.9569 0.2904 -0.2904 0.9569 47.5146 -91.5521)" class="st1" width="131.4" height="159.5"/>
<polygon id="XMLID_110_" class="st2" points="298.3,222.5 2.2,222.5 42.6,35 338.7,35 "/>
<polygon id="XMLID_113_" class="st1" points="279.2,204.6 31,204.6 63,55.9 311.3,55.9 "/>
</svg>
