<?xml version="1.0" encoding="utf-8"?>
<!-- Generator: Adobe Illustrator 19.0.0, SVG Export Plug-In . SVG Version: 6.00 Build 0)  -->
<svg version="1.1" id="Layer_1" xmlns="http://www.w3.org/2000/svg" xmlns:xlink="http://www.w3.org/1999/xlink" x="0px" y="0px"
	 viewBox="0 0 364.7 362.8" style="enable-background:new 0 0 364.7 362.8;" xml:space="preserve">
<style type="text/css">
	.st0{fill:#32360A;}
	.st1{fill:none;}
	.st2{fill:none;stroke:#F5EDDB;stroke-width:4;stroke-linejoin:round;}
	.st3{fill:none;stroke:#F5EDDB;stroke-width:4;stroke-linejoin:round;stroke-dasharray:20.7118,10.3559;}
	.st4{fill:none;stroke:#F5EDDB;stroke-width:4;stroke-linejoin:round;stroke-dasharray:17.158,8.579;}
	.st5{fill:none;stroke:#F5EDDB;stroke-width:4;stroke-linejoin:round;stroke-dasharray:19.1905,9.5953;}
	.st6{fill:none;stroke:#F5EDDB;stroke-width:4;stroke-linejoin:round;stroke-dasharray:20.5345,10.2672;}
	.st7{fill:none;stroke:#F5EDDB;stroke-width:4;stroke-linejoin:round;stroke-dasharray:18.9805,9.4902;}
	.st8{fill:none;stroke:#F5EDDB;stroke-width:4;stroke-linejoin:round;stroke-dasharray:20.335,10.1675;}
	.st9{fill:none;stroke:#F5EDDB;stroke-width:4;stroke-linejoin:round;stroke-miterlimit:10;stroke-dasharray:20,10;}
</style>
<g id="XMLID_2_">
	<path id="XMLID_32_" class="st0" d="M269.5,360.4c-2.3,0-4.7,0-7,0c-3-1.9-6.5-3.3-8.9-5.7c-24.4-24.2-48.7-48.5-73-72.8
		c-1-1-1.7-2.2-2.7-3.5c-1.2,1.6-1.9,2.5-2.6,3.4c-12.8,18-25.5,36.1-38.4,54c-2,2.8-4.2,5.6-6.9,7.8c-6.7,5.7-13.5,3.5-15.3-5.1
		c-1.7-8.1-2.5-16.4-3.6-24.7c-1.1-8.4-2.1-16.8-3.2-25.2c-1.3-10.1-2.6-20.2-3.8-30.3c-1-7.8-2-15.6-3-23.2c-2-0.6-3.8-1.2-5.6-1.7
		c-26.7-8-53.5-16-80.2-24c-5.8-1.7-10.1-5-11.6-11.2c0-2.1,0-4.2,0-6.3c1.2-4.7,4.4-7.8,8.5-10c14-7.6,28-15.2,41.9-22.7
		c26.6-14.4,53.3-28.8,79.9-43.2c40.3-21.8,80.6-43.7,120.9-65.6c24.4-13.2,48.7-26.5,73.2-39.6c5.5-3,11.2-5.5,16.8-8.3
		c2.1,0,4.2,0,6.3,0c5.4,1.6,8.9,5.1,10.5,10.5c0,2.3,0,4.7,0,7c-0.4,1.2-0.7,2.4-1.1,3.6c-8,32.1-15.9,64.2-23.9,96.3
		c-18.6,74.6-37.3,149.1-55.9,223.6C279.2,350.5,277.3,357.4,269.5,360.4z M54.8,191.1c0.9,0.5,1.4,0.9,1.9,1
		c19.2,5.8,38.4,11.6,57.7,17.2c1.3,0.4,3.3-0.1,4.4-0.9c19.6-13.8,39-27.8,58.5-41.7c37.6-26.8,75.2-53.7,112.7-80.5
		c0.7-0.5,1.6-0.8,2.4-1.3c0.2,0.2,0.4,0.5,0.6,0.7c-37.4,52-74.8,104-111.8,155.3c25.7,25.7,51.1,51.1,76.7,76.6
		C280.7,227,303.4,136,326.2,45.1c-0.3-0.1-0.6-0.3-0.9-0.4C235.3,93.4,145.3,142.1,54.8,191.1z"/>
	<path id="XMLID_27_" class="st1" d="M54.8,191.1c90.5-49,180.5-97.8,270.4-146.5c0.3,0.1,0.6,0.3,0.9,0.4
		C303.4,136,280.7,227,258,317.7c-25.6-25.5-51-50.9-76.7-76.6c37-51.4,74.4-103.4,111.8-155.3c-0.2-0.2-0.4-0.5-0.6-0.7
		c-0.8,0.4-1.7,0.7-2.4,1.3c-37.6,26.8-75.2,53.7-112.7,80.5c-19.5,13.9-39,27.9-58.5,41.7c-1.1,0.8-3.1,1.2-4.4,0.9
		c-19.3-5.6-38.5-11.4-57.7-17.2C56.2,192,55.7,191.6,54.8,191.1z"/>
</g>
<g id="XMLID_4_">
	<g id="XMLID_26_">
		<polyline id="XMLID_42_" class="st2" points="345.7,27.7 348.2,18.1 339.4,22.8 		"/>
		<line id="XMLID_41_" class="st3" x1="330.3" y1="27.7" x2="34" y2="187.4"/>
		<polyline id="XMLID_40_" class="st2" points="29.5,189.9 20.7,194.6 30.2,197.8 		"/>
		<line id="XMLID_39_" class="st4" x1="38.3" y1="200.5" x2="107.6" y2="223.3"/>
		<polyline id="XMLID_38_" class="st2" points="111.7,224.6 121.2,227.8 129,221.6 		"/>
		<line id="XMLID_37_" class="st5" x1="136.5" y1="215.6" x2="245.8" y2="129.5"/>
		<polyline id="XMLID_36_" class="st2" points="249.5,126.5 257.4,120.3 251.3,128.2 		"/>
		<line id="XMLID_35_" class="st6" x1="245" y1="136.3" x2="172.9" y2="229.9"/>
		<polyline id="XMLID_31_" class="st2" points="169.8,233.9 163.7,241.8 170.8,248.9 		"/>
		<line id="XMLID_30_" class="st7" x1="177.5" y1="255.6" x2="255" y2="332.5"/>
		<polyline id="XMLID_29_" class="st2" points="258.3,335.8 265.4,342.9 267.9,333.2 		"/>
		<line id="XMLID_28_" class="st8" x1="270.4" y1="323.3" x2="344.5" y2="32.7"/>
	</g>
</g>
<polyline id="XMLID_5_" class="st9" points="121.2,227.8 126,330.6 163.7,241.8 "/>
</svg>
