<?xml version="1.0" encoding="utf-8"?>
<!-- Generator: Adobe Illustrator 19.0.0, SVG Export Plug-In . SVG Version: 6.00 Build 0)  -->
<svg version="1.1" id="Layer_1" xmlns="http://www.w3.org/2000/svg" xmlns:xlink="http://www.w3.org/1999/xlink" x="0px" y="0px"
	 viewBox="0 0 501 501.1" style="enable-background:new 0 0 501 501.1;" xml:space="preserve">
<g id="XMLID_184_">
	<path id="XMLID_185_" d="M183.5,151.5c2.3,0,4.6,0,6.9,0.4c2.2,0.3,4.3,0.9,6.6,0.8c2-0.1,4.1,0.4,6.1,0.6c3.1,0.2,6.3,0.4,9.9,0.6
		c-0.3-1-0.4-1.5-0.6-2c-1.5-2.9-2.9-5.8-4.6-8.5c-4.2-6.7-8-13.6-13-19.8c-0.2-0.2-0.2-0.4-0.4-0.7c-4-7.9-7.3-16.1-9.5-24.7
		c-0.1-0.4-0.1-0.8-0.2-1.2c0.4,0.5,0.6,1.1,0.8,1.6c1.2,3.1,2.3,6.3,3.6,9.4c3,6.9,7.2,13.1,11.5,19.2c2.2,3.1,4.5,6.2,6.7,9.2
		c3.6,5.1,7.2,10.2,10.1,15.7c0.5,0.9,1,1.9,2.1,1.9c2.3,0,4.6-0.1,6.9-0.2c1.5-0.1,2.9-0.3,4.4-0.5c-3,1.7-6.5,2.1-9.5,3.9
		c1,2.3,2,4.5,2.9,6.7c0.4,0.9,0.7,1.7,0.9,2.6c0.4,1.2,0.6,2.4,1,3.6c1.2,3.6,1.6,7.3,1.5,11c-0.1,5.1-0.9,10-2.2,14.9
		c-0.4,1.4-0.9,2.9-1.6,4.1c-2.1,3.2-3.3,6.8-4.4,10.4c-0.2,0.5-0.4,1.1-0.6,1.5c-0.6,1.1-1.3,2.2-1.9,3.4c-0.7,1.6-0.2,2.6,1.5,3.1
		c1.4,0.4,2.8,0.8,4.1,1.3c6.7,2.4,12.8,5.8,18.3,10.3c1.5,1.3,2.2,1.3,3.8,0.2c0.4-0.2,0.7-0.5,1.1-0.8c1.7-1.6,3.3-3.4,5.1-4.9
		c2.1-1.7,3.7-3.6,5-5.9c1.8-3.3,3.6-6.5,4.6-10.2c0.4-1.4,0.6-2.9,1-4.3c0.6-2.3,1.4-4.5,2-6.8c0.6-2.4,1.1-4.9,0.8-7.4
		c-0.4-3.7-0.6-7.5-1-11.2c-0.9-7.3-2.5-14.4-5.3-21.1c-2.5-6-6-11.3-9.6-16.6c-3.1-4.5-6.4-8.7-10.8-12.1c-0.3-0.2-0.5-0.5-0.8-0.8
		c-5.6-6.2-11.5-12.1-17.7-17.7c-0.3-0.3-0.7-0.5-0.9-0.9c-1.1-2.4-3.1-4-4.8-5.9c-9-10.2-15.9-21.7-21.4-34c-2-4.5-3.1-9.1-3.6-14
		c-0.3-3.4-0.9-6.8-1.6-10.1c-0.4-2-1.7-2.4-3.5-1.4c-2.4,1.3-3.3,3.8-4.4,6c-0.5,1-0.8,2.1-1.3,3.1c-4.8,8.9-8.1,18.3-10.3,28.1
		c-1.2,5.2-0.8,10.4-0.8,15.6c0,2.7,0.2,5.5,0.5,8.2c0.9,7.3,2.7,14.4,5.3,21.3c2.9,7.7,5.9,15.3,8.9,23
		C181.3,151,182.1,151.5,183.5,151.5z"/>
	<path id="XMLID_186_" d="M77,311.3c0.3-0.7,0.6-1.2,0.7-1.6c3.8-10.7,7.8-21.3,11.5-32c2.2-6.4,4.7-12.7,5.6-19.5
		c0.2-1.4,0.5-2.7,0.7-4c1.5-6.8,4-13.2,6.6-19.6c1.3-3.3,2.6-6.7,3-10.3c0.5-4.1,1-8.2,2.9-11.9c0.2-0.3,0.2-0.7,0.2-1.1
		c0.2-1,0.2-2,0.6-2.9c1.7-4.4,3.5-8.8,3.9-13.6c0.1-0.6,0.1-1.2,0.2-1.9c1.3-6.2,2.5-12.4,3-18.8c0.2-2,0.2-4,0.2-6
		c0-3.1-0.2-6.2-0.3-9.3c2.1,8.3,3,16.7,4.4,25.3c0.6-0.7,1.1-1.3,1.5-1.9c0.2-0.3,0.4-0.8,0.6-1.2c0.4-1,0.8-2,1.2-2.9
		c3.1-7.3,6.7-14.3,12.3-20.1c1.2-1.2,1.2-1.9,0.4-3.4c-1-1.8-2.2-3.6-3.2-5.5c-1.3-2.2-2.5-4.5-3.8-6.6c-2.5-4-5-7.9-7.5-11.8
		c-1.3-2-2.5-4.1-4.1-6c-6.2-7-13.2-12.8-21.5-17.2c-1-0.5-2-1.2-3.1-0.3c-1.2,1-0.6,2.1-0.3,3.3c1.6,4.7,3.2,9.3,4.7,14
		c0.5,1.5,0.9,3.1,1.3,4.6c0.3,1,0.8,2,0.9,3c1,7.9,1.4,15.7,0,23.6c-0.7,3.7-1.3,7.5-2.2,11.2c-1.3,5-3.1,9.8-5.4,14.4
		c-1.3,2.6-2.4,5.2-3.6,7.8c-0.1,0.3-0.4,0.5-0.5,0.8c-0.9,1.8-1.8,3.5-2.7,5.3c-0.2,0.5-0.4,1-0.7,1.5c-1.2,1.9-2.6,3.8-3.7,5.8
		c-1.2,2.1-2.3,4.2-4,5.9c-2.7,2.7-4.9,5.8-6.3,9.4c-0.6,1.6-1.6,3.1-2.5,4.6c-1.1,1.9-2.3,3.8-3.4,5.8c-2.1,3.6-3.7,7.5-4.5,11.6
		c-0.4,2.2-1,4.4-1.7,6.5c-1.2,3.8-2,7.7-2.3,11.7c-0.4,5.9,0.2,11.7,1.5,17.4c2.1,8.9,5.4,17.4,10.2,25.2c2,3.2,4.6,6,7,9
		C75.6,310.2,76.3,310.6,77,311.3z"/>
	<path id="XMLID_187_" d="M151.8,177.5c1,6.3,1.9,12.7,2.9,19c0.5,3.4,1.7,3.9,4.5,1.7c2.4-1.8,3.6-4.5,5.5-6.7
		c2-2.2,3.5-4.8,5.3-7.2c1.4-2,3.1-3.7,3.6-6.2c0.4-1.7,1-3.4,1.4-5.2c0.8-3.7,2-7.3,1.1-11.2c-0.5-2-0.9-2.6-3-2.6
		c-2.3-0.1-4.6,0-6.9,0c-5.5-0.2-11,0.1-16.3,1.6c-2.3,0.6-2.8,1.5-1.9,3.7C149.9,168.5,151.1,173,151.8,177.5z"/>
	<path id="XMLID_188_" d="M181.6,428.6c-4.5-5.7-8.4-11.9-11.5-18.5c-0.8-1.7-1.9-2.2-3.7-2.1c-3.8,0.1-7.6,0-11.4-0.1
		c-5.4-0.1-10.7-0.3-16.1-0.4c-0.5,0-1.1,0.2-1.7,0.2c-1.3,0.2-2.7,0.5-4,0.5c-6.5-0.2-13.1-0.5-19.6-0.7c-0.1,0-0.2,0-0.4,0
		c-3.6-0.4-7.2-0.1-10.8,0.2c-3.9,0.3-7.8,0.6-11.7,0.8c-2,0.1-4.1-0.1-6-1c-1.7-0.9-2.4-2.3-2.4-4.1c0-1.8,0.8-3,2.4-3.7
		c1-0.4,2-0.8,3-1c1.5-0.2,3.1-0.4,4.6-0.4c4.5-0.1,9.1-0.1,13.6-0.3c7.7-0.5,15.3-0.7,23-0.2c11,0.6,21.9,0.9,32.8-0.2
		c1.9-0.2,2.6-1.1,2.1-3c-1.7-5.9-3-11.9-3.5-18.1c-0.1-1.9-0.8-2.4-2.6-2.5c-7.4-0.3-14.8-0.6-22.2-0.7c-11.6-0.1-23.2,0-34.8,0
		c-1.6,0-3.1,0.2-4.6-0.1c-2.2-0.4-4.6-0.2-6.4-2c-1.1-1.1-1.8-2.2-1.2-4c1.4-0.5,2.8-1.3,4.4-1.6c4.6-0.7,9.3-1.5,13.9-1.6
		c8.6-0.1,17.2-0.3,25.8,0.2c6.6,0.4,13.3,0.3,20,0.4c2,0,4,0,6-0.1c1.5-0.1,1.7-0.3,1.8-1.8c0.3-2.8,0.5-5.6,0.8-8.5
		c-2.7-0.8-5.2-1.5-7.7-2.4c-4-1.5-8.2-2.8-12-4.7c-9.3-4.7-17.2-11.2-23.9-19.2c-7.1-8.5-12.9-17.7-16.7-28.1
		c-1.5-3.9-2.6-7.9-3.9-11.9c-0.1-0.3-0.3-0.6-0.6-1.1c-1,2.8-2,5.2-2.6,7.7c-2,7.4-4.7,14.7-7.6,21.8c-0.7,1.8-0.5,2.7,1.3,3.6
		c3.9,2,7.9,3.9,11.9,5.9c0.5,0.2,0.9,0.5,1.7,0.9c-3.3,0.2-6.1,0-8.7-1.1c-2.1-0.9-4.3-1.7-6.5-2.4c-1.6-0.6-1.7-0.5-2.3,1
		c-0.2,0.6-0.4,1.2-0.7,1.7c-3.8,9.7-7.5,19.5-11.3,29.2c-2,5.3-4.2,10.5-6.1,15.9c-2.4,6.9-4,13.9-4.1,21.2
		c-0.1,4.4,0.1,8.8,0.2,13.3c0,0.3,0,0.6,0.2,0.9c0.7,1.5,0.6,3,0.6,4.6c0,2.6-0.1,5.1,0,7.7c0.1,3.7,0.5,7.4,0.7,11.2
		c0.2,3.3,2.5,5.8,5.8,5.7c3.2-0.1,6.5-0.3,9.7-0.6c10.9-0.8,21.8-0.8,32.7-0.9c8.6,0,17.2,0,25.8,0c0.7,0,1.4,0,2-0.1
		c3-0.7,6.1-0.7,9.1-0.7c6.5,0,13,0.1,19.4,0.1c0.7,0,1.4,0,2-0.1c3.3-0.8,6.6-0.6,9.8-0.6c0.6,0,1.1,0,1.7-0.1
		c1.5-0.3,2.1-1.7,1.3-3C182,429.1,181.8,428.8,181.6,428.6z"/>
	<path id="XMLID_189_" d="M185.8,179.1c-0.1,1.1-0.5,2.3-1,3.4c-1.4,2.7-3.3,5.3-4.3,8.2c-0.1,0.3-0.4,0.6-0.7,0.9
		c-2,2.2-4,4.4-6.1,6.6c-1,1.1-2.3,1.9-3.2,3.1c-1.8,2.4-4,4.4-6.3,6.3c-0.4,0.3-0.8,0.8-1.2,1.1c-4.9,4.8-8.6,10.4-11.4,16.5
		c-6.3,13.7-8.9,28.1-7.2,43.1c0.7,6.7,2.4,13.2,5.2,19.4c5.1,11.3,13.5,19.6,23.8,26.1c1.4,0.9,2.9,1.7,4.5,2.2
		c3.9,1.2,7.9,2.3,11.8,3.3c1.7,0.4,3.5,0.6,5.3,0.7c6.7,0.6,13.3,0.3,19.9-1.4c8.1-2,15.2-5.7,21.1-11.8c3-3.1,5.2-6.8,7.3-10.6
		c4.9-9,7-18.6,6-28.8c-0.7-7-2.7-13.5-6.2-19.6c-3.6-6.2-8.3-11.4-15-14.4c-9.4-4.1-19.1-5.1-29-1.9c-9,2.9-15.8,8.5-19.2,17.5
		c-1,2.6-1.6,5.5-1.9,8.3c-0.9,7.5-0.2,14.8,3.1,21.7c3.5,7.6,9.4,12.1,17.9,12.7c4.5,0.3,8.8-0.7,13-2.2c2.7-1,4.6-3,5.6-5.7
		c1.5-3.8,1.8-7.7,0.6-11.7c-0.8-2.8-2.6-4.8-5.4-5.7c-1.6-0.5-3.4-0.7-5.1-0.8c-1.3-0.1-2.6,0.2-3.9,0.4c0.9-0.9,1.3-1.2,2.5-1.5
		c5-1.5,11.6-0.2,15.5,4.1c1.5,1.6,2.3,3.5,2.4,5.8c0,1.6,0.1,3.1,0.1,4.7c0.1,5.6-3.8,12.2-9.7,14.1c-1.1,0.4-2.2,0.8-3.3,1.2
		c-1.1,0.4-2.2,0.9-3.4,1c-5.1,0.6-10.2,0.7-15.3-0.4c-10.9-2.2-18.9-8.2-22.8-18.8c-3-8-3.4-16.3-1.4-24.5
		c4.5-18.6,22.1-33.3,37.9-34.1c0.9,0,1.9-0.3,2.4-1.2c1.4-2.3,2.8-4.7,3.5-7.4c0.5-1.7,1.2-3.4,1.8-5.1c0.3-0.8,0.6-1.6,1-2.4
		c2.5-5.8,3.9-11.9,5.4-18c0.2-0.8,0.2-1.6,0.1-2.4c-0.3-3.1-0.5-6.2-1.2-9.2c-0.9-4-2-7.9-3.2-11.9c-0.5-1.8-0.9-2-2.7-1.8
		c-1.9,0.2-3.8,0.4-5.7,0.7c-1.3,0.2-2.7,0.5-4,0.6c-4.3,0.1-8.6,0.2-12.9,0.2c-1.6,0-3.2-0.2-5.1-0.3c0,0.5-0.1,1,0,1.4
		c0.3,1.7,0.7,3.4,1,5.1c0.1,0.5,0.2,1.1,0.1,1.6c-0.1,1.1-0.2,2.2-0.3,3.3C186.1,173.7,186,176.4,185.8,179.1z"/>
	<path id="XMLID_190_" d="M295,156.2c-3.9,4.4-0.9,11.4,4.2,12.2c1,0.1,2.1,0,3.1-0.1c5.1-0.3,9.1-2.7,12.1-6.8
		c0.9-1.2,1.5-2.5,1.6-3.9c0.3-5.5,0.5-10.9-1.2-16.2c-0.8-2.5-2.1-4.6-4-6.4c-0.4-0.3-0.7-0.7-1-1.1c-1.9-2.2-4-4.3-6.6-5.6
		c-1.1-0.5-2.1-1-3.3-1.4c-1-0.4-2.1-0.8-3.2-1c-2.5-0.4-5.1-0.3-7.6,0c-6.9,0.8-12.4,4.3-16.9,9.3c-1.2,1.3-2.1,3-3.4,4.2
		c-2,1.8-3,4.2-4.2,6.5c-0.3,0.6-0.7,1.4-0.7,2.1c-0.4,3.5-0.6,7.1,0.8,10.5c1.5,3.6,3,7.1,4.5,10.6c1.6,3.7,2.9,7.6,3.1,11.7
		c0.2,4,1.8,7.1,5.6,8.9c2,0.9,2.5,1,4-0.6c4.2-4.6,8.7-8.9,13.9-12.4c0.6-0.4,1.1-1.1,1.8-1.8c-1-0.5-1.6-1-2.3-1.3
		c-3-1.1-4.8-3.5-6.6-5.9c-0.7-1-1.2-2.2-1.4-3.4c-1-4.4,1.8-10.2,5.7-12.5c2.2-1.2,5.3-1,6.8,2.2c-1.1,0.4-2.2,0.8-3.3,1.2
		C296.1,155.5,295.4,155.8,295,156.2z"/>
	<path id="XMLID_191_" d="M218.3,101.7c3.2,3,6,6.5,9,9.7c3.4,3.7,7,7.2,11.1,10.2c0.6,0.4,1.1,1,1.6,1.5c1.6,1.6,3.2,3.3,4.9,4.9
		c1.4,1.3,3,2.4,4.3,3.9c2.4,2.8,4.6,5.7,6.8,8.6c1.3,1.6,3,1.5,4.1-0.3c1.8-3.1,3.7-6.2,5.4-9.4c1.4-2.5,3.2-4.6,5.8-5.9
		c0.7-0.3,1.2-0.9,1.9-1.2c1.3-0.7,2.6-1.5,3.9-2.1c1.8-0.8,3.6-1.5,5.4-2.1c2.7-1,5.5-1.3,8.4-1.5c4.4-0.2,8.6,0.6,12.7,2.4
		c2.8,1.3,5.8,2.4,8.2,4.4c4.7,3.8,7.8,8.7,9.4,14.5c2.2,7.7,2.7,15.4,0.2,23.2c-0.3,0.8-0.2,1.7-0.4,2.7c5.2-1.3,9.7-4.4,15.7-3.8
		c-0.6,0.6-0.9,0.8-1.3,1.1c-0.3,0.3-0.7,0.5-1,0.8c-4.5,4.5-7,10.2-8.5,16.3c-0.1,0.6-0.2,1.1,0.5,1.4c2.3-2,4.4-4.1,6.1-6.6
		c0.9-1.3,1.6-2.8,2.3-4.2c0.4-0.8,0.8-1.7,1.3-2.5c1.5-2.6,2-5.6,3-8.3c0-0.1,0-0.2,0-0.4c0.2-1.6,0.4-3.2,0.6-4.8
		c0.4-3.1,1-6.2,0.6-9.3c-0.2-2.1-0.6-4.2-0.9-6.3c-0.5-4.3-1.8-8.4-3.4-12.4c-0.7-1.7-1.4-3.4-2.1-5.2c-1.3-3.5-2.5-7.2-3.9-10.7
		c-1.8-4.4-4.3-8.4-7.9-11.7c-4.2-3.9-8.3-7.9-13-11.2c-1.2-0.8-2.2-1.8-3.4-2.7c-1.4-1.1-2.9-2.2-4.4-3.1c-4.1-2.5-8.4-4.3-13-5.7
		c-8.3-2.6-16.9-3.9-25.6-3.8c-3.6,0-7.3,0.1-10.8,0.7c-6.9,1.2-13.6,3-20.2,5.3c-7.1,2.5-13.9,5.6-20.1,9.7c-2.1,1.4-2.2,2.1-1,4.1
		C213,95.5,215.4,98.9,218.3,101.7z"/>
	<path id="XMLID_192_" d="M270.2,209.8c2.2-4.3,4-8.8,6-13.3c-1-0.6-1.8-1-2.7-1.6c-1.8-1.2-2.2-1.2-3.1,0.9c-0.3,0.6-0.4,1.3-0.5,2
		c-0.1,0.5-0.1,1-0.3,1.5c-0.9,2.7-1.9,5.4-2.6,8.1c-0.8,2.8-1.8,5.3-3.4,7.8c-1.5,2.4-2.8,5-4.2,7.5c-0.9,1.5-1.7,3-2.7,4.5
		c-1.3,2-2.5,4-3.9,5.9c-0.9,1.2-2,2.2-3,3.3c-1.4,1.4-1.5,2-0.4,3.6c3.1,4.3,4.7,9.3,6.3,14.3c0.5,1.6,0.6,3.4,1,5.1
		c0.1,0.6,0,1.4,0.7,2.2c0.1-0.6,0.3-0.9,0.3-1.2c0.1-1.6,0-3.2,0.2-4.8c0.5-4.1,0.9-8.1,1.5-12.2c0.6-4,1.3-7.9,3-11.7
		c1.2-2.8,2-5.7,3.1-8.6c0.7-1.9,1.9-3.7,1.6-5.8c0-0.2,0.1-0.4,0.2-0.5C268.6,214.5,269.1,212,270.2,209.8z"/>
	<path id="XMLID_193_" d="M172.8,397.4c1.1-0.1,2.2-0.3,3.3-0.4c2.7-0.2,4.1-1.7,5-4.1c0.2-0.5,0.4-1,0.6-1.6c0.9-3.3,1-6.6,0.5-10
		c-0.3-2.2-1.4-3.5-3.5-4.4c-4.1-1.6-8.4-2.4-12.7-2.9c-1.9-0.2-2.8,0.9-2.4,3c1.1,5.8,2.5,11.4,4.4,17
		C169.2,397.4,169.2,397.5,172.8,397.4z"/>
	<path id="XMLID_194_" d="M254.8,64.3c4.3-0.7,8.7,0.3,13,0.1c0.2,0,0.5,0.1,0.7,0.1c4.7,0.4,9.4,1,14.1,1.3
		c4.1,0.2,7.9,1.7,11.6,3.2c1.6,0.6,3.1,1.3,4.6,2.1c3.5,1.8,7.1,3.7,10.5,5.7c3.1,1.8,6.2,3.6,8.8,6.3c2.4,2.5,5,4.6,7.5,7
		c1.9,1.9,3.8,3.8,5.6,5.7c1.9,2,3.6,4.1,5.5,6.1c1.5-0.5,2.6-1.7,3.6-2.8c0.7-0.7,1.2-1.6,2.1-2.1c3.4-2,6.7-4.1,10.2-5.8
		c5.1-2.5,10.6-4,16.4-3.3c1.8,0.2,3.7,0.6,5.4,1.3c2.4,0.9,4.5,2.4,6.5,3.9c4,2.9,6.7,6.8,8.6,11.1c2.6,5.7,3.3,11.7,2.3,17.9
		c-1.4,9.3-7.5,14-14.8,15c-2.3,0.3-4.7-0.2-7-0.6c-3.2-0.6-5.6-2.1-7.4-4.8c-1.7-2.7-1.9-5.7-1.1-8.6c1-3.5,3.5-6,6.7-7.7
		c0.5,0.3,1,0.6,1.6,1c-1,0.9-2,1.7-2.8,2.5c-1.7,1.8-2.5,3.9-1.4,6.3c0.3,0.6,0.4,1.2,0.5,1.8c0.3,1.3,1.1,2.2,2.2,2.6
		c1.6,0.6,3.3,1.4,5,1.4c6.8,0.3,12-2.8,13.6-9.9c0.4-1.6,0.1-3.3,0.1-5c0.2-3.5-0.9-6.6-2.4-9.7c-0.6-1.2-1.3-2.4-1.8-3.7
		c-0.5-1.3-1.2-2.3-2.3-3.1c-2-1.6-4.1-3-6.7-4c-4.4-1.7-8.9-1.7-13.4-1.2c-4.1,0.5-7.6,2.7-11.3,4.2c-0.4,0.2-0.7,0.5-1,0.8
		c-3.2,3.1-5.9,6.5-7.9,10.6c-0.5,1.1-0.7,2.2-0.3,3.4c0.9,2.8,1.8,5.6,2.7,8.4c0.6,1.7,1.3,3.4,1.7,5.1c0.7,2.6,1.2,5.2,1.7,7.8
		c0.4,2.2,0.6,4.4,0.8,6.7c0.2,2,0.3,3.8,2.6,4.5c0.9,0.3,1.5,1,2.3,1.5c5.2,3.4,10.9,5.4,17,5.6c14.8,0.5,26.4-5.4,33.9-18.4
		c3.3-5.7,4.5-12,4.2-18.5c-0.3-5.5-2.1-10.7-4.5-15.7c-2.3-4.6-4.6-9.2-6.8-14c-1.2-2.7-2.8-5-4.8-7.1c-3.5-3.6-7.7-6.3-12.2-8.6
		c-1.2-0.6-2.2-1.5-3.5-1.8c-1.7-0.3-3.1-1.1-4.6-2c-1.4-0.9-2.8-1.5-4.5-1.5c-0.8,0-1.7-0.3-2.5-0.6c-6.2-2.2-12.5-4.2-19-5.5
		c-4.4-0.9-8.8-1.4-13.3-2.2c-1.9-0.3-3.7-0.9-5.6-1.2c-2.9-0.3-5.8-0.6-8.7-0.6c-8.5,0.1-17.1-0.7-25.5,0.8
		c-2.6,0.5-5.2,0.7-7.8,1.1c-3.1,0.4-6.3,0.5-9.4,1.5c-0.9,0.3-1.8,0.6-2.7,0.6c-3.3-0.2-6.2,1.2-9.2,2.1c-1.5,0.5-2.9,1-4.4,1.5
		c-1.4,0.4-2.8,0.8-4.2,1.2C254.3,64.3,254.6,64.4,254.8,64.3z"/>
	<path id="XMLID_195_" d="M441.9,261.3c-0.8-0.6-1.8-1.2-2.8-1.4c-1.7-0.4-3.6-0.7-5.3-0.5c-5.9,0.4-11.7,1.7-17.4,3.2
		c-1.8,0.5-2.6,1.6-2,3.6c1.9,6.6,3.3,13.4,4.3,20.2c0.7,5.3,0.9,10.7,0.5,16c-0.1,1-0.4,1.9-0.7,2.9c-0.4,1.4-0.7,2.7-0.5,4.3
		c0.3-0.2,0.5-0.4,0.6-0.5c2.4-3.4,4.9-6.7,7.3-10.1c6.8-10,12.4-20.7,17.5-31.6C444.8,264.3,444.6,263.2,441.9,261.3z"/>
	<path id="XMLID_196_" d="M452.2,178.7c-0.1-1.3-0.6-2.2-1.8-2.9c-2.6-1.6-5.3-2.6-8.3-3.4c-6-1.6-12.1-2.1-18.3-2.2
		c-3.9-0.1-7.8-0.2-11.8-0.3c-1.7,0-3.5-0.3-5.2,0c-1.5,0.3-2.9,0.6-4.4,0.7c-9.5,0.7-18.5,3.2-26.9,7.6c-5.8,3-11.4,6.4-17.3,9.3
		c-6.3,3.2-11.7,7.7-17.2,12.1c-2.3,1.9-4.3,4.1-6.4,6.3c-1.4,1.5-2.8,3.2-4.1,4.7c0,0.2,0.1,0.3,0.1,0.5c0.8,0,1.7,0.2,2.5,0.1
		c1.5,0,3.1-0.3,4.6-0.2c3.8,0.3,7.6,0.6,11.3,1.1c4,0.5,8.1,0.8,12,1.7c4.6,1.1,9.2,2.7,13.7,4.3c2,0.7,3.5,0.7,5.4-0.4
		c6.9-4.1,14.2-7,22-9.2c5.9-1.7,11.9-1.7,17.8-2.8c1-0.2,2-0.2,3-0.3c2.2-0.3,4.3-0.8,6.5-0.8c3.9,0.1,7.7,0.5,11.5,0.9
		c3.5,0.3,7.1,0.7,10.6,0.9c2.4,0.1,3.1-0.5,3-2.9c-0.1-2.4-0.2-4.9-0.5-7.3C453.6,190.4,452.8,184.6,452.2,178.7z"/>
	<path id="XMLID_197_" d="M180.2,409.2c-0.4-0.4-1-0.9-1.5-1c-1.1-0.2-2.3,0-3.7,0c1.4,4.6,4.5,7.7,7.3,11.4
		c0.3-0.5,0.4-0.6,0.4-0.7c0.2-2.7-0.7-5.2-1.5-7.7C181.1,410.4,180.7,409.8,180.2,409.2z"/>
	<path id="XMLID_198_" d="M501,49.1c0-27.1-21.9-49-49-49H49C21.9,0.1,0,22,0,49.1v403c0,27.1,21.9,49,49,49h403
		c27.1,0,49-21.9,49-49V49.1z M463,198.6c0,0.9-0.3,1.7-0.3,2.6c0,8.2-0.8,16.3-2.1,24.4c-2.1,13.9-5.6,27.4-10,40.8
		c-4.8,14.5-11.6,27.9-21,40c-3.9,5-8.1,9.6-12.6,14c-0.6,0.6-1.3,1.4-1.5,2.3c-1.2,3.8-2.1,7.6-3.6,11.3
		c-2.9,6.8-6.2,13.3-10.5,19.3c-8.5,11.9-19.1,21.6-31.1,29.9c-0.2,0.2-0.5,0.3-0.7,0.4c0-0.5,0.3-0.7,0.6-0.9c3.3-3,6.7-6,9.9-9.1
		c1.6-1.5,2.9-3.2,4.5-4.8c4.7-4.6,8.7-9.7,12.2-15.3c4.7-7.6,6.7-16.3,9.3-24.7c0.8-2.7,1.4-5.4,1.9-8.2c0.8-4.1,1.3-8.3,2.1-12.5
		c1.4-7.7,1.3-15.4-0.4-23c-1.5-6.4-3.4-12.7-5.2-19.1c-0.1-0.3-0.2-0.6-0.3-0.9c-2.4-4.8-4.7-9.8-7.4-14.5
		c-4.9-8.6-11.4-15.9-20.1-20.9c-13.7-7.8-28.4-10.9-44.1-9c-2.3,0.3-4.6,0.9-7,1.4c-1.4,0.3-1.7,0.8-1.8,2c0,0.7,0.1,1.4,0.2,2
		c0.2,1,0.6,2,0.7,3.1c0.2,1.9,0.3,3.8,0.5,5.7c-0.5-0.5-0.8-1.1-1-1.7c-0.8-2.3-1.6-4.7-2.5-7.1c-0.8-2.3-1.6-2.6-3.8-1.5
		c-0.8,0.4-1.5,0.8-2.3,1.3c-4.2,2.6-8.1,5.6-11.9,8.8c-3.5,2.9-6.2,6.5-8.2,10.6c-1.2,2.5-2.4,5.1-3.2,7.8
		c-3.7,11.7-3.8,23.5-1,35.4c1.9,8,5.1,15.5,10.3,22c3.6,4.4,7.8,7.9,13.2,9.9c8.9,3.4,18.1,4.5,27.5,2.7
		c8.7-1.6,16.4-5.2,22.6-11.6c6.1-6.3,9.1-13.9,9.1-22.6c0-5.8-1.6-11.3-4.3-16.5c-4.4-8.2-10.5-14.6-19-18.7
		c-3.2-1.5-6.6-2.4-10.1-2.2c-6.4,0.3-12,2.5-17,6.5c-3.6,3-6.1,6.7-7,11.4c-0.8,4.3-0.4,8.6,1.1,12.7c1,2.7,2.6,4.9,4.9,6.7
		c4.9,3.7,14.2,2.3,16.6-4.9c0.4-1.4,0.9-2.7,1.3-4.1c0.1-0.4,0.4-0.8,0.8-1.6c0.1,0.7,0.2,1,0.3,1.2c0.3,5.2-2,9.3-6.8,11.6
		c-4.7,2.3-9.6,2.4-14.5,0.6c-3.1-1.2-5.5-3.1-7.1-6c-2.1-4-2.9-8.2-2.4-12.6c0.6-5,3-9.2,6.1-13c3.9-4.6,8.5-8.4,13.4-11.9
		c2-1.4,4.2-2.2,6.6-2.4c4.6-0.5,9.1,0,13.5,1.5c11.8,4,20.5,11.8,26.8,22.4c3.3,5.5,5.4,11.5,6,17.9c0.8,9.6-1.4,18.4-7.3,26.2
		c-1.5,2-3.2,3.9-4.9,5.8c-1.1,1.3-2.2,2.6-3.5,3.6c-3.3,2.4-6.5,4.9-10.5,6.4c-4.5,1.7-8.9,3.7-13.8,4.3
		c-5.1,0.6-10.1-0.4-15.1-0.5c-11.1-2.4-21.4-6.7-30.5-13.5c-1.7-1.3-2.6-1.2-3.7,0.6c-2.5,4.2-5.7,7.8-9.2,11.3
		c-0.8,0.8-1.6,1.7-2.6,2.7c1.7,0.3,3.1,0.5,4.4,0.9c5,1.3,9.7,3.2,14.2,5.6c7.3,3.9,13.3,9.2,17.4,16.5c8.8,15.8,11.8,32.7,8,50.5
		c-2.7,12.7-8.5,23.9-16.4,34c-4.3,5.5-9.5,10-15.5,13.6c-8.8,5.2-18.4,8.1-28.6,9.1c-1.8,0.2-3.7,0.6-5.5,0.6c-2.5,0-5,0-7.5,0
		c-0.5,0-1-0.1-1.4-0.2c-6.4-0.6-12.8-1.3-19-2.9c-14.8-3.8-27.7-10.8-39.1-21c-2.6-2.3-3.1-2.2-4.4,0.9c-0.5,1.2-1.4,2.2-2.6,2.4
		c-2.1,0.3-4.2,0.3-6.3,0.3c-8,0-15.9,0-23.9,0c-4.1,0-8.2,0.1-12.3,0.1c-1.8,0-3.6-0.1-5.4,0c-3,0.1-6,0.3-9,0.4
		c-4.5,0.1-9.1,0-13.6,0.1c-1.3,0-2.6,0.4-3.9,0.5c-4.5,0.2-9,0.5-13.4,0.5c-7.2,0-14.3-0.2-21.5-0.3c-3.9-0.1-7.7-0.1-11.6-0.2
		c-0.4,0-0.7-0.1-1.1-0.3c-1.6-0.5-3.3-1.1-4.9-1.6c-0.8-0.3-1.5-0.6-2.2-1c-1.1-0.5-2.1-1.2-3.1-1.6c-0.8-0.3-1.1-0.9-1.3-1.6
		c-1-5.1-1.7-10.2-2-15.4c-0.1-1.9-0.7-3.8-0.7-5.7c0-2.5,0-5,0-7.5c0-1.8,0.6-3.7,0.7-5.5c0.4-7.2,1.4-14.4,2.5-21.5
		c1.6-9.5,4.5-18.7,7.5-27.7c4.3-12.6,9-25.1,13.6-37.6c0.5-1.4,0.4-2.2-0.7-3.2c-3.3-3.1-6.1-6.5-8.6-10.3c-1-1.5-2.1-2.9-3.1-4.5
		c-1.9-3-3.8-6-5.4-9.2c-3.8-7.5-5.1-15.7-5.6-24c-0.2-3.8-0.1-7.7-0.2-11.6c0-1.6-0.2-3.1,0-4.7c0.4-4.1,1.3-8.1,2.6-12
		c4-11.7,9.7-22.6,16.4-33.1c2.9-4.5,5.9-8.8,8.4-13.5c2.2-4.2,4.7-8.2,6.4-12.6c0.1-0.3,0.3-0.5,0.5-0.8c1.5-2.2,2.6-4.5,3.3-7.1
		c1.3-5.1,2.8-10.1,3.9-15.2c2.2-9.9,3.3-19.9,2.1-30.1c-0.8-6.8-2.7-13.3-7.1-18.8c-1-1.3-2-2.6-2.9-3.9c-1.1-1.7-2.1-3.5-3.2-5.3
		c-0.2-0.3-0.2-0.8-0.4-1.4c0.8,0.2,1.4,0.4,2,0.6c10.3,3.4,19.4,8.9,27.7,15.9c7.7,6.5,14.4,14,20.9,21.6c2,2.3,3.8,4.6,5.5,7
		c1.7,2.4,3.4,4.7,4.6,7.4c0.7,1.6,1.8,2.2,3.6,1.9c1.3-0.2,2.6-0.5,3.8-0.9c6-1.8,12.3-1.8,18.5-2c2-0.1,4.1,0,6.3,0
		c-0.2-0.9-0.3-1.5-0.4-2.1c-1.8-8-4.3-15.7-7.5-23.3c-0.5-1.2-1-2.4-1.2-3.7c-0.6-2.7-1-5.4-1.5-8c-0.2-1.1-0.9-2.2-1.1-3.4
		c-0.5-3.2-0.9-6.4-1.1-9.6c-0.4-9.6,1.2-19,4.3-28.1c3-9,7.2-17.4,11.8-25.6c2.1-3.8,4.2-7.6,7-11c1.9-2.3,3.9-4.3,6.7-5.6
		c0.4-0.2,0.8-0.2,1.3-0.4c0,0.7,0,1.2-0.1,1.7c-0.7,6.1-0.7,12.2,0,18.3c0.8,6.5,2.2,12.7,5.2,18.6c0.9,1.9,2.3,3.6,2.5,5.8
		c0,0.2,0.1,0.3,0.2,0.5c1.5,2.5,2.9,5.1,4.4,7.6c1,1.8,1.9,1.9,3.6,0.7c0.9-0.7,1.8-1.5,2.8-2.2c16.5-13.1,35-22.1,55.4-27.3
		c9.4-2.4,18.9-4,28.5-4.7c8.4-0.6,16.7-0.8,25,0.2c1.9,0.2,3.7,0.5,5.6,0.6c2.7,0.1,5.3,0,8,0.6c3.2,0.7,6.5,0.5,9.8,1.4
		c4.2,1.1,8.5,1.7,12.8,2.5c0.7,0.1,1.4,0.5,2.1,0.7c1.7,0.6,3.4,1.4,5.1,1.6c2.2,0.3,4.2,1.2,6.2,2c3.2,1.3,6.4,2.8,9.6,4.1
		c3.9,1.6,8,2.8,11.5,5.3c0.4,0.2,0.8,0.3,1.2,0.5c2.4,1.2,4.9,2.4,7.2,3.8c2.4,1.5,4.6,3.4,7,5c1.7,1.2,3.5,2.2,5,3.5
		c4.8,4.4,9.4,9,14.2,13.5c5.8,5.5,10.7,11.7,14.8,18.4c1.2,2,2.5,4,3.9,5.9c3,4.2,5.5,8.6,7,13.5c0.4,1.2,0.7,2.4,1.1,3.5
		c0.4,1.1,0.9,2.2,1.3,3.3c0.6,1.8,1.1,3.6,1.6,5.4c0.9,3.4,1.9,6.7,2.6,10.1c0.5,2.4,1,4.9,1.8,7.2c0.6,1.6,1,3.2,1.3,4.9
		c1.7,8.3,2.6,16.6,2.7,25c0,0.7,0.2,1.3,0.2,2C463,194.1,463,196.4,463,198.6z"/>
	<path id="XMLID_201_" d="M454.1,217.5c0-1-0.4-1.7-1.3-2c-4.5-1.4-8.9-3.3-13.8-3c-0.4,0-0.7-0.1-1.1-0.2c-4-1.2-8.1-1.3-12.2-1
		c-6.5,0.5-12.9,1.2-19.2,2.4c-0.6,0.1-1.2,0.1-1.8,0.2c-1,0.2-1.9,0.3-2.9,0.6c-1.7,0.5-3.4,1.1-5.1,1.7c-3.5,1.2-6.5,3.4-9.7,5.2
		c-1,0.6-1,1.9-0.1,2.7c0.4,0.3,0.8,0.6,1.2,0.9c3.4,2.5,6.5,5.3,9.3,8.4c5.6,6.2,9.7,13.2,12.9,20.8c0.3,0.7,0.6,1.4,1,2
		c0.4,0.7,1.1,0.9,1.9,0.7c2.9-0.7,5.8-1.5,8.7-2.1c2.3-0.5,4.7-0.8,7-0.9c2.7-0.2,5.4-0.1,8,0c2.7,0,5.3-0.2,8,0.5
		c1.1,0.3,1.9-0.2,2.3-1.4c2.3-6.1,4.5-12.2,5.3-18.8c0.1-0.7,0.2-1.5,0.3-2.2c0.5-3.8,1-7.5,1.5-11.3c-0.1,0-0.2,0-0.2,0
		C454.1,219.8,454.1,218.6,454.1,217.5z"/>
	<path id="XMLID_202_" d="M257.5,342.5c-2.2,0.4-4.4,0.7-6.4,1.8c-3.6,2-7,4.3-10.2,6.9c-12,9.7-19,27-13.4,43.5
		c1.7,5,3.9,9.6,7.8,13.2c0.7,0.7,1.3,1.5,1.8,2.3c1.6,2.4,3.5,4.5,6,5.7c8.9,4.5,18.2,5.9,27.9,3.2c8.5-2.4,14.5-7.5,17.2-16.1
		c1.6-5,1.5-10.2,0.6-15.3c-0.6-3.9-2.6-6.8-5.8-8.9c-1.3-0.9-2.8-1.7-4.3-2.3c-4.1-1.6-8.3-2.4-12.6-0.9c-4.6,1.6-7.9,4.5-8.9,9.4
		c-0.4,2.2-0.3,4.5-0.4,6.7c-0.1,1.2,0.3,2.2,1,3.1c0.9,1.1,2,2.1,2.9,3.1c0.6,0.7,1.2,1.4,1.8,2c-2.8,0-4.9-1.2-6.9-2.8
		c-2-1.6-3.2-3.7-3.6-6.1c-0.6-3.7,0.2-7.2,2.4-10.3c1.9-2.8,4.2-5,6.8-7.1c2.4-1.9,5.1-2.9,8.1-2.9c1.5,0,3,0,4.5,0
		c4-0.1,7.7,1.3,11.4,2.6c0.3,0.1,0.5,0.3,0.7,0.5c1.9,2.1,3.9,4.2,5.6,6.5c1.7,2.1,2.9,4.5,3.3,7.2c0.8,5,0.7,10.1-0.5,15
		c-0.8,3.3-1.9,6.5-3.7,9.5c-1.4,2.3-2.8,4.6-4.7,6.4c-2.2,2.1-4.6,3.9-7.2,5.3c-5.3,3-11,4.6-17.1,5c-7.2,0.5-14.2,0.2-20.7-3.5
		c-5.8-3.3-11.4-6.9-15.9-12c-3.6-4-6.1-8.7-7.6-13.8c-0.4-1.5-0.6-3-0.9-4.5c-0.5-2.5-1.2-5-1.4-7.5c-0.5-6.1,0.3-12.2,2.1-18.1
		c0.8-2.5,1.9-5,2.9-7.5c0.7-1.7-0.1-2.9-1.9-2.9c-0.8,0-1.6,0.1-2.4,0.1c-7.2,0.7-14.5,0.8-21.7,0.4c-9.5-0.5-19-1.8-28.2-4.3
		c-0.7-0.2-1.4-0.3-2.4-0.5c0.4,3.2-0.8,6-0.4,9.2c0.9,0,1.4,0,2,0c2.8-0.1,5.6-0.3,8.4-0.2c3.2,0,6.4,0.1,9.5,0.5
		c3.6,0.4,5.5,2.3,5.9,5.9c0.3,2.8,0.2,5.7,0.2,8.6c-0.1,3.4-0.4,6.7-0.4,10.1c0,2.9,0.4,5.7,0.6,8.6c0.3,4.6,0.7,9.2,1,13.8
		c0.1,2,0.6,4.2,0.3,6.1c-0.4,2.6-0.5,5.1-0.2,7.6c0.3,2.7,1.1,5.2,3.5,6.9c2.5,1.7,4.9,3.7,7.4,5.4c6.9,4.7,14.3,8.3,22,11.5
		c4,1.7,8.1,2.7,12.5,3.1c5,0.4,9.9,0.9,14.9,1.3c6.1,0.5,12.2,0.1,18.2-1.2c20.6-4.5,34.9-17.1,44.4-35.5
		c3.6-7.1,5.4-14.7,4.7-22.8c-0.2-1.9-0.5-3.7-0.7-5.5c-0.6-6.6-1.9-13.1-4.5-19.2c-5.4-12.9-14.6-21.8-28.2-25.8
		C275.8,340.5,266.7,340.6,257.5,342.5z"/>
	<path id="XMLID_203_" d="M341.2,191.3c2-1.8,4.3-3.4,6.4-5.1c2.4-1.9,4.7-3.9,7.1-5.8c0.5-0.4,1-0.7,1.6-1c2-1.1,3.9-2.1,5.9-3.2
		c16.2-8.4,33.4-13.1,51.6-14.3c9.7-0.6,19.3,0,28.7,2.3c1.6,0.4,3.1,0.9,4.7,1.4c1.8,0.5,2.9-0.5,2.7-2.4c0-0.2-0.1-0.5-0.2-0.7
		c-1.1-4.5-2.1-9-3.3-13.4c-0.8-3-1.7-6-2.9-8.9c-1.3-3.3-2.8-6.5-4.3-9.7c-1.4-2.9-2.8-5.7-4.5-8.4c-3.8-5.7-8.2-11.1-11.7-17
		c-0.5-0.8-1.1-1.5-1.7-2.2c-3.4-3.8-6.8-7.6-10.2-11.4c-0.4-0.5-0.9-0.8-1.4-1.2c-0.8-0.6-1.6-1.2-2.3-1.9
		c-0.8-0.8-1.6-1.6-2.7-2.3c1.2,2.8,2.2,5.3,3.3,7.9c0.8,2,1.5,4.1,2.5,6c1,1.8,1.5,3.7,2,5.6c0.2,0.8,0.6,1.6,0.8,2.5
		c0.3,1.1,0.8,2.2,1,3.4c1.2,6.9-0.1,13.5-2.9,19.8c-1.3,3.1-2.7,6.2-5.2,8.6c-0.3,0.3-0.5,0.7-0.7,1.1c-4.3,7-10.3,11.9-18,14.8
		c-7.9,2.9-15.9,3.3-24.1,1.7c-2.4-0.5-4.8-1.1-7.2-2c-2-0.7-3.9-1.9-5.9-2.8c-0.7-0.3-1.4-0.5-2.1-0.2c-0.9,3.3-1.7,6.6-2.5,9.8
		c-0.1,0.4-0.4,0.8-0.6,1.2c-0.4,0.7-0.7,1.3-1.1,2c-1.1,2.1-2.2,4.3-3.4,6.4c-2.6,4.4-5.7,8.4-9.2,12.2c-1.8,2-3.7,3.9-5.7,5.6
		c-1.1,0.9-1.8,1.9-1.8,3.3c0,4.8,0,9.7,0,14.5c0.1,0.1,0.2,0.2,0.4,0.2c0.4-0.4,0.8-0.8,1.2-1.3c0.4-0.5,0.7-1,1.2-1.4
		c1.4-1.3,2.8-2.6,4.2-3.9C334.4,197.6,337.8,194.4,341.2,191.3z"/>
	<path id="XMLID_204_" d="M327.4,166.9c-0.9-0.7-1.7-0.4-2.5-0.1c-8.9,3.9-17.5,8.5-25.4,14.2c-13.3,9.8-21.8,22.9-26.7,38.4
		c-1,3.3-1.9,6.6-2.6,9.9c-1.1,4.6-2,9.2-2.9,13.9c-0.5,2.3-1,4.5-1.2,6.8c-0.6,5-1.1,10-1.5,15c-0.3,3.2-0.8,6.3-2,9.3
		c-1.5,3.9-3.2,7.8-4.8,11.7c-1.5,3.5-2.9,7-4.6,10.4c-1.2,2.5-2.8,4.8-4.1,7.3c-1.6,3.1-4,5.6-6.3,8.1c-1.6,1.7-3.5,3.2-5.3,4.7
		c-9.5,7.6-20.2,11.6-32.4,11.5c-2.6,0-5.2-0.3-7.8-0.2c-3.8,0.2-7.4-0.9-11.1-1.2c-6.9-0.7-13.1-3.2-19.1-6.7
		c-7.5-4.4-13.5-10.3-19.3-16.6c-6.3-6.9-11-14.5-13.5-23.6c-3.1-11.4-4.2-22.9-2.2-34.6c2-11.6,6.5-22.2,12.7-32.1
		c1.3-2,2.1-4,1.8-6.4c0-0.4,0-0.7,0-1.1c-0.1-1.6-0.3-3.2-0.3-4.8c-0.1-4.2,0.1-8.5-0.1-12.7c-0.3-6.6-1.6-13.1-3.5-19.4
		c-0.8-2.9-2.3-3.2-4.4-1.1c-0.2,0.2-0.4,0.4-0.6,0.7c-1.5,2.2-3.2,4.2-4.3,6.5c-2.4,5-4.5,10.1-6.8,15.2
		c-5.8,12.7-10.4,25.9-14,39.4c-3.8,14.2-7.5,28.5-11.2,42.8c-0.2,0.8-0.2,1.7-0.1,2.6c0.7,5.6,1.8,11.1,3.8,16.3
		c1.9,5,3.9,10,6,14.9c9.3,22.6,26.1,36.7,49.4,43.3c0.4,0.1,0.9,0.1,1.5,0.2c1.2-3.8,2.3-7.5,4.8-10.5c0.1,0,0.3,0.1,0.4,0.1
		c-0.9,3.7-1.8,7.3-2.8,11.2c0.7,0.2,1.1,0.3,1.5,0.4c9.3,2.2,18.8,3.2,28.3,3.3c8.2,0.1,16.3-0.1,24.5-0.3c2,0,4.1-0.3,6.1-0.5
		c1.2-0.1,2.2-0.7,3-1.7c2.3-2.7,4.9-5.1,7.8-7.1c1.1-0.7,2.1-1.5,3.2-2.2c1.4-1,2.9-2,4.4-2.8c1.2-0.7,2.6-1.1,3.9-1.7
		c2-0.9,3.9-2,5.9-2.9c2.9-1.2,5.9-2.3,9.2-2.2c3.4,0.1,6.7,0.1,10.1,0.1c0.7,0,1.6,0,2.1-0.4c2.7-1.8,5.4-3.5,7.9-5.6
		c3.8-3.1,6-7.3,7.8-11.7c0.5-1.3,0.4-2.3-0.4-3.5c-2.1-3-3.7-6.2-5-9.6c-3-7.7-4.4-15.7-4.8-23.9c-0.4-10.5,0.6-20.8,4.1-30.7
		c2.4-6.8,5.7-13.2,10.9-18.3c4.1-3.9,8.7-7,13.6-9.8c2.6-1.4,5.5-2.4,7.6-4.6c0.2-0.2,0.5-0.4,0.8-0.5c1.6-0.5,2.1-1.8,2.2-3.3
		c0-2.2,0-4.4,0-6.5c0-3.7,0-7.4,0-11c0-0.4,0.1-0.7,0.2-1.1c0.3-2,0.6-3.9,1-5.9c0.3-1.3,0.7-2.5,1.2-3.7c0.6-1.5,1.3-2.9,1.9-4.4
		c1.3-3.4,2.6-6.9,3.9-10.3C327.2,167.5,327.3,167.2,327.4,166.9z"/>
</g>
</svg>
