<?xml version="1.0" encoding="utf-8"?>
<!-- Generator: Adobe Illustrator 19.0.0, SVG Export Plug-In . SVG Version: 6.00 Build 0)  -->
<svg version="1.1" id="Layer_1" xmlns="http://www.w3.org/2000/svg" xmlns:xlink="http://www.w3.org/1999/xlink" x="0px" y="0px"
	 viewBox="0 0 560 560" style="enable-background:new 0 0 560 560;" xml:space="preserve">
<g id="XMLID_2_">
	<path id="XMLID_23_" d="M353.6,558.1c-0.7,0-1.3,0-2,0c-2.6-1.9-5.5-3.6-7.9-5.8c-10.8-10.3-22.3-20-32.1-31.2
		c-20.3-23.2-35.8-49.1-42-79.9c-5.1-25.1-6.9-50.4-7.6-75.9c-0.1-4-0.4-8.1-0.7-13.2c-1.6,1.8-2.4,2.6-3.1,3.5
		c-14.9,16.5-29.4,33.6-45,49.5c-14.4,14.8-30.6,27.4-49.7,36.2c-34.3,15.8-67.4,14.9-99.3-5.6c-13-8.3-23.2-19.5-26.4-35.3
		c-2.6-12.7-0.1-25,4.3-36.9c2.8-7.6,2.8-7.7-4-11.8c-15.7-9.4-26.7-22.2-30.6-40.4c-1.3-6-2.3-12.1-3.5-18.1c0-0.7,0-1.3,0-2
		c1.1-4,2.2-8,3.2-12c6.5-27.2,21.6-48.4,45.5-63c19.8-12,42-11.9,63.5-9c27.3,3.7,54.2,10.1,81.2,15.7c8.7,1.8,17.3,4.6,27,7.3
		c-9-11-17.4-21-25.4-31.3c-17-21.9-32.5-44.7-40.9-71.5c-9.2-29.1-7.4-57.1,9.6-83.2c19.5-29.9,44.8-37.4,78.3-27.5
		c10.1,3,19.2,9.1,29.3,14c1-0.9,2.5-2.4,4.1-3.9c9.9-8.9,20.6-16.5,33.7-20.3c3.2-0.9,6.3-1.7,9.5-2.6c5.7,0,11.4,0,17.1,0
		c1.1,0.4,2.1,0.9,3.2,1.1c9.2,1.5,17.7,4.8,25.4,10.1c29,20.3,49.8,63.4,39.1,106.8c-8.2,33.6-24.8,63-45.4,90.4
		c-6.8,9-14.7,17.3-22.8,26.7c2.4-0.9,4-1.4,5.5-2c23.6-9.4,47.1-19,71.9-24.9c23.9-5.7,47.5-8.1,71.7-0.7
		c32.9,10.1,56.4,29.2,66,63.2c1.5,5.4,2.6,11,3.9,16.4c0,3.4,0,6.7,0,10.1c-0.5,2.2-1.1,4.4-1.6,6.7c-3.8,17.9-14.3,31.1-29.3,41
		c-4.4,2.9-5.4,5.7-3.6,10.7c9.5,27.5,3.3,52.2-16.3,72.8c-18.2,19-41,25.3-67.4,21.2c-19.7-3-37.8-10-53.9-20.6
		c-22.4-14.6-40.6-34.5-58.9-53.8c-7.9-8.4-16.7-15.9-25.2-24c-0.8,2-2.6,4.5-2.7,7.2c-0.9,16.9-4,34.2-1.5,50.6
		c4.5,29.1,18.2,55.1,35.9,78.6c8.5,11.4,18.1,21.9,29.9,30c-0.2,0.9-0.3,1.4-0.4,1.9C359.9,535,356.7,546.6,353.6,558.1z"/>
</g>
</svg>
