<?xml version="1.0" encoding="utf-8"?>
<!-- Generator: Adobe Illustrator 19.0.0, SVG Export Plug-In . SVG Version: 6.00 Build 0)  -->
<svg version="1.1" id="Layer_1" xmlns="http://www.w3.org/2000/svg" xmlns:xlink="http://www.w3.org/1999/xlink" x="0px" y="0px"
	 viewBox="0 0 960 560" style="enable-background:new 0 0 960 560;" xml:space="preserve">
<g id="XMLID_2_">
	<path id="XMLID_33_" d="M172.1,555c-13.1-5.6-14.6-14.1-3.6-23.5c4.1-3.5,9.4-7.1,14.6-7.8c9.5-1.3,12.7-7.1,14.6-15
		c9.2-38.2-2.5-66.9-37.5-91.7c-6,5.6-6.8,5.8-11.7-0.9c-4.1-5.6-7.4-11.8-12.1-17.3c0.7,2.8,1.8,5.7,1.8,8.5c0,1.8-1.6,3.6-2.5,5.4
		c-1.5-1-4.3-1.8-4.4-3c-1-9.6-12-15.3-9.6-26.9c0.9-4.2-4.9-9.8-7.3-14.2c-0.3,0.5-1.7,2.2-2.3,3c-15.3-4.1-14-13.7-11.8-24
		c0.6-2.7,0.1-5.5,0.1-8.6c-3.4-0.7-5.9,2.5-9.6-3.8c-7.4-12.9,3.5-16.2,7.4-23.2c1-1.8,2.5-3.3,3-5.8c-4.5,3.5-8.9,6.9-14.5,11.3
		c-2.1-10,4.8-12.8,8-17.6c2.8-4.3,5.1-8.9,8.1-13c4.3-5.9,1.1-8.4-6.8-9.8c7.1-6.1,12.5-10.8,18.5-15.9c-17.8-10.6,3.5-11,3.4-18.1
		c-3.1,1.2-5.6,2.9-8,2.9c-2.4,0-4.8-1.7-7.2-2.6c1.1-2.3,1.6-5.4,3.4-6.8c5.3-3.9,11.1-7.1,16.9-10.8c-8-8.9-8-8.9-0.8-18.3
		c18-23.8,5.9-53-23.7-57.7c-19.1-3-38.2-6.7-57.3-10c-9.5-1.7-16.6-7.3-21.7-15C13.8,116.2,9,107,3.9,97.9
		c-3.7-6.8-0.8-12,5.6-14.1c10.9-3.5,22-6.7,33.2-8.6c19.1-3.2,38.7-4.9,55.6-15.3c6-3.6,10.4-9.7,15.6-14.6c3-2.8,5.9-6.1,9.4-7.9
		c33.4-16.8,66.9-16.4,100.5,0c13.6,6.6,23.4,16.2,28.1,30.8c0.8,2.5,2.5,5.2,4.6,6.8c9.3,7.4,18.2,15.5,28.4,21.4
		c10.1,5.8,12.7,14.6,12.1,24.1c-0.8,13.2-3.8,26.2-6.3,39.2c-0.5,2.7-2.9,5-4.4,7.5c-0.7-0.3-1.4-0.6-2.1-1c-0.5-2.8-1-5.7-1.5-8.6
		c-3.1,3.1-6.5,5.4-8.4,8.6c-1.4,2.4-2,6.4-1.1,9c8.4,25.3,25.9,42.2,50.3,52.3c23.3,9.5,47.7,13.9,72.6,13.3
		c41.4-1.1,82.8-4,124.2-6c42.5-2,85.1-4.9,127.6-5.2c34.5-0.3,64,15.3,91.3,35.3c29.7,21.8,59.5,43.5,93.8,58
		c26.6,11.2,54.3,16.5,83,16.2c12.3-0.1,24.6-1,36.9-1.3c2.3-0.1,4.6,1.1,6.9,1.7c-0.7,2.2-0.9,4.8-2.1,6.6
		c-3.6,5.4-8.5,10-7.5,17.7c0.3,2.2-3.3,4.9-5.1,7.4c-2,3-3.9,6.2-6.1,9.6c-3.2,0-8,0-14.3,0c2.6,3.9,3.7,5.7,5.8,8.9
		c-8.1,0.4-15,0.7-22.1,1c0.9,16.2-8.6-0.5-11.7,3.6c1.7,2.8,3.4,5.7,5.1,8.6c-0.4,0.4-0.8,0.9-1.2,1.3c-8.3-3.7-16.6-7.5-24.1-10.9
		c-2.3,5-4.1,10.1-7.2,14.3c-0.5,0.7-6.4-2.6-9.9-4.1c-1,1.4-2.1,4.6-3.9,5c-1.9,0.4-4.4-1.6-6.6-2.7c-7-3.6-14-7.2-20.9-10.8
		c-0.5,0.7-1,1.3-1.5,2c2.7,2.9,5.6,5.6,8,8.7c1.4,1.8,2,4.2,2.9,6.3c-2.5-0.3-5.9,0.4-7.2-1c-3.7-3.8-6.5-8.5-9.9-12.6
		c-2.2-2.6-4.8-4.8-8.2-6.7c4.4,5.5,6.8,10.8,0.1,18.3c-5.7-7.6-11.2-15-17.9-23.8c-0.3,4.3-0.5,6.8-0.7,9.4
		c-0.6,0.4-1.2,0.8-1.7,1.2c-5.9-10-11.8-20-18.9-32.2c-0.4,4-0.3,5.4-0.8,6.4c-0.8,1.8-2.1,3.5-3.2,5.2c-1.3-1.8-3.5-3.5-3.8-5.5
		c-3.3-18.8-12.5-34.7-23.7-49.5c-3.9-5.2-9.9-8.8-14.9-13.1c-0.8,0.6-1.5,1.2-2.3,1.8c2.2,3.9,4.5,7.8,6.7,11.7
		c5.3,9.5,10.6,19.1,15.9,28.6c0.8,1.5,1.9,2.8,2.7,4.3c1.1,2.3,2,4.7,3,7.1c-2.5,0.4-5,0.8-8.9,1.4c5.2,7.9,11.8,14.7,14.5,22.9
		c1.9,5.7,7.7,9.4,6.7,17.4c-0.6,4.1,2.3,13.3,10.3,16.6c7.5,3.1,9.7,10.4,6.5,20.5c-7.7,24.6-15.8,49.1-24.2,73.5
		c-6.6,19.1-17.7,34.3-38,40.7c-9.6,0-19.2,0-28.8,0c-4.2-2.8-12.1-1.2-11.8-9.5c0.4-11.5,11.8-23.9,23.2-24.6c6-0.4,9.4-3,12.5-8.2
		c9-15,9.3-30.9,6.9-47.4c-2-13.9-5.5-17.1-19.3-18.8c-20.3-2.4-41.1-1.1-60.5-9.3c-1.2-0.5-3.5-0.1-4.6,0.8c-5,3.7-9,1.5-13-1.6
		c-5.7-4.5-11.3-9.1-15.7-12.6c-5.5,1.7-9.7,4.2-13.5,3.9c-6.8-0.6-13.4-2.9-20.3-4.5c-1.5,7.7-6.5,7.8-12.7,5.9
		c-3.1-1-6.9-2.1-9.7-1.2c-12.4,3.8-24.3,5.6-35.1-4.3c-1,3-1.8,5.5-2.5,7.6c-8.4-0.6-17.4,5.1-23.2-5.1c2,3.3,4.5,5.7,6.3,8.5
		c0.9,1.3,0.5,3.5,0.7,5.3c-1.8,0-4.2,0.8-5.4-0.1c-4-3.1-7.4-6.9-11.2-10.2c-3.8-3.3-7.9-6.3-11.9-9.4c-0.5,0.6-1,1.1-1.5,1.7
		c3.8,4.7,8.2,9,11.4,14.1c2.4,3.8,7.9,8.2,1.9,12.8c-0.6,0.4-7-5.4-9.7-9c-3.9-5.3-7.2-11-15-12.1c0.7,4.7,1.3,8.3,1.9,12.4
		c-8.5-2.7-15.3-4.8-23.9-7.5c4.4,7.5,7.7,13.2,11,18.8c-7.8-1.9-15-3.6-22.3-5.4c-0.6,2.8-1.2,5.1-2,9c-4.2-3.4-7.2-6-11.8-9.7
		c-2.9,4.1-5.6,7.9-8.3,11.7c-4.8-4.2-9.8-8.4-14.9-12.8c-6.5,10.6-9.2,10.7-17.6,3c-2.4-2.1-6.2-2.7-10.4-4.3
		c0.7,3,1.5,4.3,1.3,5.6c-0.4,2.3-1.3,4.5-2,6.7c-1.8-1.3-3.8-2.4-5.3-4c-1.6-1.8-2.7-4.1-4.6-7.1c-2.6,2.3-6.2,3.9-6.3,5.8
		c-0.5,10.1-7,8.2-13.3,6.8c-0.2,2.4,0.2,4.6-0.6,6.2c-0.7,1.6-2.5,2.9-4.1,3.6c-0.6,0.2-2.5-1.8-3.1-3.1c-5.5-11.1-6.3-11.3-16-6.1
		c2.1,6.1,4.2,11.7,5.8,17.5c0.5,1.9,0.1,5.4-0.9,5.9c-1.8,0.9-5,0.7-6.8-0.3c-4.3-2.5-8.2-5.8-10.9-7.8c-1.9,4.4-2.9,9.3-5.8,12.3
		c-3.5,3.7-4.3,6.4-2,11c0.9,1.7,0.2,5.1-1,6.7c-0.9,1.1-3.9,0.7-6,0.8c-1.4,0-3.6-1.1-4.2-0.5c-5.4,6-10.4,12.3-15.8,18.2
		c-1.8,1.9-5.3,5-6.4,4.4c-8.1-4.1-9.8,1-11.3,6.9c-2.8,11.3-10.1,17.8-21.4,19.8c-6.3,1.1-12.6,2-18.9,3.1
		C190.1,555,181.1,555,172.1,555z M199.9,168.3c0,10.9-0.1,20.8,0,30.6c0,2.1,0.6,4.1,0.9,6.2c2.6-0.4,6.1,0.1,7.7-1.4
		c4.2-4.1,7.8-8.9,11-13.8c0.9-1.4-0.2-4.1-0.4-6.1c-2.1,0.8-4.7,1.2-6.2,2.6c-2.3,2.2-3.8,5.2-5.6,7.9c-0.7-0.2-1.4-0.3-2.1-0.5
		c0-32.1,0-64.2,0-96.2c-0.4,0-0.9,0.1-1.3,0.1c-2.7,25.2-5.4,50.4-8.1,75.7C196.9,172,198,170.6,199.9,168.3z M230.3,188.4
		c1.5,2.5,2.5,5.7,4.7,7.3c1.4,1.1,5.4,1,6.6-0.2c6.2-6.1,12-12.6,17.6-19.3c0.9-1,0-3.6-0.1-5.4c-2,0.3-4.5-0.1-5.9,1
		c-2.2,1.6-3.4,4.5-5.4,6.4C243.3,182.5,240.6,190.1,230.3,188.4z M225.3,181.5c-1,0.2-1.8,0.3-1.8,0.3c0.7,7.2,1.4,14.5,2.1,21.7
		c1.4-0.2,2.8-0.5,4.2-0.7C228.3,195.8,226.8,188.7,225.3,181.5z"/>
</g>
</svg>
