<?xml version="1.0" encoding="utf-8"?>
<!-- Generator: Adobe Illustrator 19.0.0, SVG Export Plug-In . SVG Version: 6.00 Build 0)  -->
<svg version="1.1" id="Layer_1" xmlns="http://www.w3.org/2000/svg" xmlns:xlink="http://www.w3.org/1999/xlink" x="0px" y="0px"
	 viewBox="0 0 280.6 241.5" style="enable-background:new 0 0 280.6 241.5;" xml:space="preserve">
<g id="XMLID_1_">
	<path id="XMLID_141_" d="M277.7,205c0,0.2,0,0.3,0,0.5c-1.3,0.6-2.8,0.1-3.8,1.8c-0.4,0.7-2.6,0.5-3.9,0.6c-1.4,0.1-2.7,0.3-2.2,2
		c-3.7,0.3-7.2,0.5-10.8,0.8c5.2,2.8,10.3,6,16.3,2.5c0.6,0.6,1.3,0.9,2,1c0.8,0.1,1.7,0,2.5-0.1c0,0.2,0,0.3,0,0.5
		c-1.3,0.5-2.5,0.9-4.3,1.6c1.1,0.4,1.7,0.7,2.6,1c-1.6,3.4-4.5,5.4-7.6,7.4c2.5,0.6,5,1.1,7.6,1.7c0,0.2,0,0.4,0,0.7
		c-0.7,0.3-1.4,1-2,0.9c-1.9-0.4-2.8,0.5-3.3,2.2c-2.1-0.2-4.1-0.4-6.4-0.7c-0.3,2.1-1.9,1.7-3.7,1.4c-2.4-0.4-4.5-1.3-7.4,0.1
		c-3.3,1.5-7.5,0.9-10.8-1.8c-0.4-0.3-0.9-0.6-1.8-1.2c0.2,1.7,0.5,2.9,0.4,4.1c0,0.6-0.5,1.8-0.8,1.8c-2.4,0.2-4.8,0.1-7.4,0.1
		c0.5-2.2,1-3.9,1.2-5.6c0.1-0.7-0.4-1.5-0.6-2.3c-0.7,0.2-1.5,0.4-2.2,0.7c-3,1.5-5.9,3.2-8.9,4.7c-0.5,0.3-1.3,0.2-1.9,0.2
		c-1.8-0.1-3.6-0.3-5.4-0.4c-1.5-0.1-3.1,0-4.8,0c0,2.1-1.2,0.7-2.1,0.4c-1-0.3-2.7-1.1-3-0.7c-1.7,1.8-2.8,0.7-4.1-0.3
		c-0.8-0.7-1.6-1.4-2.7-2.3c0.3,1.2,0.5,2,0.6,2.8c0,0.5-0.2,1.5-0.5,1.6c-1.6,0.3-3.5,1-4.8,0.4c-1.8-0.7-4.4,0-5.3-2.6
		c0-0.1-0.4-0.2-0.6-0.2c-1.5,0.2-2.9,0.5-4.5,0.8c-0.6,2.9-0.7,2.9-4.1,2.6c-1.2-0.1-2.6-0.6-3.6-0.2c-2.7,1.2-5-0.4-7.5-0.7
		c-1-0.1-1.9-1.2-2.8-1.8c-1.5-1.1-3.1-2.3-4.6-3.4c-0.2,0.1-0.4,0.2-0.5,0.3c0.4,2.6,0.8,5.2,1.3,7.8c0.3,1.8-0.1,2.8-2.2,2.7
		c-3.1-0.1-6.3-0.1-9.4,0c-1.9,0-2.4-0.7-1.9-2.5c0.8-2.9,1.6-5.8,2-8.7c0.2-1.3-0.8-2.8-1.3-4.1c0-0.1-1.4,0.1-1.8,0.5
		c-1.2,1.2-2.1,2.7-3.4,3.8c-0.5,0.4-1.5,0.3-2.9,0.5c-2.1,5-7.2,6.2-12.9,6.7c-0.3-0.4-0.7-0.9-0.9-1.1c-2.3-0.3-4.2,2.6-5.6,0.2
		c-2,0.1-3.6,0.1-5.1,0.2c-0.4,0-0.7,0-1.1,0.1c-2.1,0.1-4.2,0.6-6.3,0.3c-3.2-0.5-6.4-1.4-9.9-2.3c0,3.4-1.9,3.3-4,3.1
		c-1.5-0.1-3.1-0.3-4.6-0.1c-3.1,0.5-6-0.2-8.7-1.5c-1.9-1-3.7-2.4-5.8-3.8c-0.6,3.4,0.9,6.5,1.5,9.6c-5,0-10.1,0-15.1,0
		c0.6-1.6,1.4-3.1,1.7-4.7c0.5-2.3,0.8-4.6,0.9-7c0-0.6-0.9-1.4-1.5-2c-0.2-0.2-1,0-1.3,0.3c-1.6,1.5-3.2,3.1-4.8,4.7
		c-0.5-0.6-0.8-1-1.2-1.4c-0.7,1-1.1,1.9-1.8,2.6c-0.6,0.6-1.6,1.4-2.2,1.3c-1.8-0.6-2.8,0.4-4,1.4c-2.4,2-5.1,1.7-7.1-0.7
		c-1.4,0.8-2.8,1.6-4.3,2.5c-0.3-1-0.5-1.6-0.8-2.6c-2.1,2-4.3,1.8-6.8,1.4c-2.8-0.4-3.6-0.8-3-3.6c-1.8,0.4-3.6,0.8-5.9,1.4
		c0.7-1.3,1.2-2.1,1.7-2.9c-1.5-0.2-2.7-0.3-3.9-0.5c0-0.2,0-0.5,0-0.7c2.3-0.7,4.7-1.5,7.2-2.3c-5,0-9.7,0-14.2,0
		c-0.9-0.7-1.8-1.4-3.2-2.5c0.8-0.2,1.4-0.5,2.1-0.7c-0.1-0.2-0.3-0.3-0.4-0.5c-2.2,0.3-4.4,0.6-6.5,0.9c0-0.3,0-0.6,0-0.9
		c1.8-0.8,3.5-1.7,5.6-2.6c-1-0.6-1.7-1-2.8-1.7c1.9-0.4,3.8-0.1,4.5-1c2.2-2.5,4.8-1.5,7.4-1.6c3.2-0.1,6.4-0.3,9.5-0.7
		c0.7-0.1,1.3-0.8,2-1.2c-0.1-0.1-0.2-0.2-0.3-0.3c-0.8,0.3-1.6,0.6-2.7,1.1c0.3-1.2,0.5-1.9,0.7-3c-2.1,1.5-3.9,2.8-6.1,4.3
		c0-1.5,0-2.4,0-3.7c-2.2,1.8-4.1,2.4-5.7-0.3c-0.2-0.3-0.8-0.5-1.2-0.5c-0.9,0-1.7,0.1-2.9,0.1c0.5-1.1,0.8-1.9,1.3-2.9
		c-2.8,0-5.5,1.4-8.1-1c2.4-0.5,4.3-1,6.4-1.5c-0.8-0.9-1.3-1.5-1.8-2.1c0.1-0.2,0.1-0.4,0.2-0.6c5.4,0,10.8,0,16.2,0
		c0-0.2,0-0.5,0-0.7c-3.8-1-7.5-2.1-11.6-3.2c0.8-0.9,1.4-1.6,2-2.2c-1.7-0.4-3.2-0.8-4.8-1.1c0-0.3,0.1-0.5,0.1-0.8
		c0.5-0.2,1-0.4,1.5-0.5c1.8-0.3,3.6-0.5,5.4-1c0.5-0.1,0.9-1.1,1-1.7c0-0.3-0.9-0.8-1.5-0.9c-0.6-0.1-1.3,0.3-1.8,0.1
		c-2.1-1-4.2-2-6.1-3.3c-0.3-0.2,0.4-1.9,0.7-3c-1.9-0.7-3.8-1.4-5.8-2.1c0.1-0.3,0.2-0.5,0.2-0.8c2.1,0,4.1,0,6.2,0
		c-0.1-0.8-0.2-1.5-0.4-2.4c1.4,0.2,2.5,0.4,3.6,0.5c0.9,0,1.8-0.1,2.6-0.2c1.3-0.2,2.7-0.9,3.8-0.5c5,1.8,9.5,0.4,14-1.4
		c0.9-0.3,1.6-1.1,2.3-1.7c-0.1-0.2-0.2-0.4-0.4-0.6c-1.2,0.3-2.4,0.6-3.7,0.9c-0.9-2.4-2.9-3.7-4.9-3.6c-4,0.2-6.6-2.2-9.9-3.8
		c0.3-0.5,0.7-0.9,1.1-1.4c-1.4-0.7-2.7-1.4-3.9-2.1c0.1-0.2,0.1-0.4,0.2-0.6c2.9,0.3,5.8,0.8,8.8,1c1,0.1,2-0.5,3-0.8
		c0-0.2-0.1-0.4-0.1-0.6c5.9,1.9,16.4,0.6,19.5-2.5c-4.1-0.7-8.1-1.5-12.2-2.2c0-0.3-0.1-0.9-0.2-1.5c-1.4,0.2-2.8,0.8-4,0.6
		c-2-0.3-3.9-1.1-5.9-1.7c-2.2-0.7-4.4-1.3-6.8-2c0.8-0.9,1.3-1.4,1.8-2c-1.3-0.7-2.4-1.4-3.6-2c0-0.3,0.1-0.5,0.1-0.8
		c9-0.7,17.9-1.5,26.9-2.2c0-0.2,0-0.4,0-0.6c-1.3-0.6-2.7-1.1-4-1.7c4-2.1,8.7-1.8,11.9-5.2c-0.8-0.2-1.7-0.2-2.4,0
		c-0.5,0.2-1.1,1.1-1.4,1c-2.6-0.6-5-0.3-7.3,1.3c-0.4,0.3-1.4-0.1-2.2-0.2c-1.1-0.2-2.1-0.3-3.7-0.6c-0.3-1.4-2-0.8-3.5-0.9
		c-1.1-0.1-2.9-0.5-3.1-1.2c-0.7-2-2.3-2.4-3.9-3.2c-0.4-0.2-0.7-0.6-0.8-0.7c2.3-1.2,4.5-2.3,6.8-3.4c0.5-0.2,1.1-0.1,1.6-0.2
		c3.8-0.8,7.6-1.6,11.3-2.6c0.7-0.2,1.8-1.4,1.6-1.8c-0.6-1.7,0.2-2.5,2.3-3c-2.2-1-3.4-0.1-4.4,0.9c-1.8,1.6-3.5,1.7-5.6,0.2
		c-1.4-1-3.1-1.5-4.6-2.2c-1.8-0.8-3.1-2-4-4c3-0.2,5.4-1.5,8.3-0.3c1.6,0.7,3.7,0.5,5.3-1.1c-4.8-1.6-9.1-3.5-11.6-8.2
		c2.2-1,5.3,1.5,6.3-2.4c4.6,2.5,8.9,1.9,13.7-0.1c-2.6-2.3-4.8-4.3-7.1-6.3c-0.3-0.2-0.9-0.2-1.3-0.2c-4.9-0.5-8.3-4-12.4-6.2
		c2-1.8,5.5,1.7,6.4-2.5c1.6,0.7,3.1,1.4,4.7,2.2c0.2-0.1,0.4-0.3,0.5-0.4c-0.3-1.2-0.6-2.4-1-4.1c2.3,0,4.3,0,6.4,0
		c0.1-0.2,0.1-0.4,0.2-0.6c-3.2-2.2-7.7-2.7-9.6-7.1c4-1,7.7-2.2,11.9-1.1c0-0.8,0-1.3,0-2.1c1.9,0.7,3.6,1.5,5.3,1.9
		c0.9,0.2,2.2,0.3,3-0.2c2.8-1.5,5.5-3.2,8.3-4.9c0.4-0.2,0.6-0.7,0.8-1c-4.8,2.6-9.7,4-15,3.3c-0.2-0.3-0.4-0.5-0.5-0.8
		c0.8-0.6,1.6-1.1,2.5-1.7c-1.7,0.2-3,0.9-4.5,1.3c-2.4,0.6-2.1-1.8-3-2.8c-1.2,0.1-2.2,0.3-3.6,0.4c0.2-1,0.4-1.6,0.5-2.3
		c-2.5-0.8-5.5,0.4-7.4-2.6c1.2-0.2,2.1-0.4,3-0.6c1-0.3,2.3-0.4,2.8-1.1c1-1.5,2-1.3,3.3-0.7c2.3,1.1,4.6,2.1,7.4,3.4
		c-0.6-1.1-0.9-1.7-1.5-2.9c2.2,0.7,3.8,1.3,5.5,1.8c3.1,1,6.2,1.6,9.5,0.6c0.5-0.1,0.8-0.9,1.2-1.4c-0.6-0.2-1.2-0.6-1.9-0.6
		c-0.8,0-1.7,0.8-2.4,0.6c-1.5-0.5-2.8-1.4-4.3-2.1c0.3-0.3,0.7-0.9,1.3-1.6c-3.6,0.7-6.7,0.2-9.7-1c0-0.2,0-0.5,0-0.7
		c1.3-0.6,2.5-1.1,4-1.8c-1.7-1.4-3.2-2.6-4.9-3.9c0.8-0.6,1.4-0.9,2-1.3c-1-1.3-1.8-2.3-2.5-3.3c0.2-0.3,0.3-0.6,0.5-0.8
		c1.7,0.7,3.3,1.5,5,2.1c1.3,0.5,2.7,1.1,4.1,1.1c1.2,0,2-0.8,0.9-2.2c-0.5-0.7-1-1.4-1.8-2.7c1.8,0.2,3,0.4,4.2,0.5
		c0.1-0.3,0.2-0.5,0.4-0.8c-1.1-0.6-2.1-1.3-3.4-2c1.5-1.7,0.5-3-0.7-4.3c-0.3-0.3-0.6-0.7-0.7-1.2c-0.1-0.5-0.3-1.2,0-1.5
		c0.2-0.3,1.1-0.5,1.4-0.2c1.7,1.2,3,0.5,4.3-1.1c1.1,2.3,2,4.4,3.2,6.8c1.8-5.3-3-7.7-4.1-11.4c0.2-0.1,0.3-0.3,0.5-0.4
		c1.4,0.9,2.8,1.8,4.8,3.1c0-3.2,0-5.7,0-8.5c3.3,1.5,1.9,4.6,3.1,6.4c1.4-0.8,2.7-1.5,3.9-2.2c0.2,0.2,0.4,0.5,0.5,0.7
		c-1,3.5-5.5,5.4-4.6,10.4c1.5-1.9,2.6-3.3,3.8-4.8c0.1,0.2,0.2,0.5,0.2,0.7c2-0.3,4.1-0.7,6.6-1.1c-1,1.2-1.7,2-2.4,2.8
		c0.9,0.8,1.7,1.4,3.1,2.6c-2.6,0.1-4.4,0.2-6.8,0.3c1.8,1.3,3.2,2.3,5.1,3.7c-2.1,0.5-3.5,0.9-5,1.2c-0.5,0.1-1.2-0.1-1.7-0.4
		c-1.7-1.1-3.1-0.5-3.1,1.6c0,1.5,0.2,3,0.5,4.5c0.2,1,0.7,1.9,1.1,2.8c1-0.5,2.3-0.7,3-1.5c1.6-1.9,3-4,4.5-6
		c0.5-0.6,1.5-1.5,1.8-1.3c1.8,1.2,3,0.1,4.3-0.8c0.5-0.4,1.3-0.4,2.6-0.8c-0.8,1.6-1.3,2.6-1.8,3.7c1.1,0.4,2.1,0.8,3.4,1.3
		c-1.3,1.4-2.3,2.5-3.5,3.8c1.4,0.6,2.4,1.1,3.5,1.6c0,0.3,0.1,0.6,0.1,0.9c-2.4,1-4.9,2.1-7.8,3.3c1.9,0.7,3.3,1.3,5.1,1.9
		c-1.7,1.4-3,2.5-4.3,3.7c0.1,0.1,0.2,0.3,0.3,0.4c1.7-0.3,3.4-0.5,4.9-0.8c1.7,4.3,6.5,3.5,9.1,6.4c-1.9,1.5-3.9,2.2-6.2,2
		c-0.7-0.1-1.9,0-2.2,0.5c-1.2,2-2.3,1.4-3.5,0.1c-0.6-0.6-1.2-1.2-2-1.5c-0.4-0.2-1.5,0.2-1.6,0.5c-0.7,2.6-2,1.4-3.2,0.6
		c-0.5-0.3-0.9-0.7-1.5-1.2c-0.9,2.1-2.2,1.6-3.9,0.6c1.7,3.3,5,1.3,6.9,3c-0.2,0.7-0.3,1.4-0.5,2.2c2.7,0.6,5.2,0.7,7.4-0.9
		c2.3-1.7,4.7-0.4,5.9,0.7c1.8,1.8,3.3,1.4,5.1,0.8c3.2-1.1,5.8,0.5,8.5,2c-2.8,1.2-5.6,2.2-6.9,5.3c-1.4-0.5-2.8-1-4.5-1.6
		c0.8,1.1,1.3,1.8,1.8,2.5c-0.1,0.2-0.2,0.4-0.3,0.5c-1.2-0.4-2.4-0.7-3.5-1.2c-1.2-0.5-2-0.5-2.5,1c-0.2,0.5-1.2,1.1-1.7,1
		c-2.6-0.4-5.2-1.1-7.7-1.7c-0.1,0-0.2,0.2-0.7,0.9c2.8,1.3,5.5,2.8,8.3,3.8c3.5,1.1,6.9,0.2,9.9-2.3c0.6,1,1,1.8,1.6,2.8
		c3-2.8,5.8-0.6,8.8,0.2c-1,0.9-2.6,1.3-3.1,2.3c-0.9,1.9-2,1.6-3.5,1.2c-0.4-0.1-1.6,0.6-1.6,0.8c0.2,2.3-1.4,2.3-3,2.3
		c-0.2,2.4-1.7,3.1-3.7,2.7c-2.1-0.4-4.2-0.9-6.3-1.3c-0.3-0.1-0.6,0-0.9,0c-1.4,0.1-2.7,0.3-4.1,0.3c-1,0-2-0.3-3.1-0.4
		c6.2,4.3,12.8,6.8,20.3,3.5c-0.1,1.4-0.1,2.2-0.2,3.8c4.5-2.4,8.4-0.9,12.2,0.5c0.6,0.2,1.2,0.5,2,0.8c-0.7,0.5-1.1,0.9-1.5,1.2
		c-1.5,1.1-3.1,1.7-4.1,3.7c-0.4,1-0.9,3.2-3,2.9c-3-0.4-5.7,2.1-8.7,0.7c-0.3-0.1-0.8,0.3-1.2,0.4c-0.8,0.2-1.7,0.6-2.5,0.6
		c-1.6-0.1-3.2-0.4-4.8-0.7c-0.1,0.3-0.2,0.5-0.3,0.8c1,0.7,1.8,1.7,2.9,2.2c5.1,1.9,10.1,2.4,14.3-0.8c1.3,0.8,2.1,1.3,3,1.8
		c-0.4,0.4-0.7,0.9-1.1,1.4c2.5-0.2,4.7-0.3,7.1-0.4c0.3-2.9-3.4-2.3-4.2-4.6c1.1-0.2,2.1-0.3,3-0.6c1-0.3,1.9-0.9,2.8-1.4
		c1-0.5,1.9-1.1,2.9-1.4c3.7-1,7.4-1.8,11-2.9c0.7-0.2,1.9-1.4,1.8-1.8c-0.7-2.1,0.5-3,2.2-3.9c-2.2-0.8-2.5-0.7-4.1,0.8
		c-2.7,2.6-4.1,2.5-6.8-0.1c-0.8-0.8-2-1.4-3-1.8c-2.3-0.7-3.4-2.5-4.6-4.6c3.1-0.4,5.5-1.9,8.4-0.3c1.6,0.9,3.7,0.3,5.3-1.5
		c-5.4-1.3-9-4.5-11.9-9.2c2.2-1.1,5.7,1.5,6.3-2.7c5.1,3,9.6,1.8,14.2-0.4c-1.3-0.9-2.5-1.7-3.6-2.6c-2.1-2-3.4-4.5-7-5
		c-4.1-0.5-6.9-4.1-10.1-6.5c-0.1,0,0-0.3,0.1-0.7c1.7,0.1,3.4,0.2,5.1,0.3c0.2-0.8,0.4-1.5,0.6-2.4c1.6,0.9,3,1.7,4.5,2.4
		c0.2-0.1,0.4-0.3,0.7-0.4c-0.4-1.4-0.8-2.8-1.2-4.4c2.3,0,4.4,0,6.6,0c0.1-0.2,0.2-0.5,0.4-0.7c-0.6-0.5-1.1-1-1.8-1.4
		c-2-1.2-4.2-2.2-6-3.6c-0.9-0.7-1.7-2.3-1.5-3.2c0.4-1.7,2.1-0.9,3.3-0.8c0.7,0,1.4-0.4,2.1-0.5c0.9-0.2,1.8-0.6,2.6-0.6
		c0.9,0,1.7,0.4,2.8,0.6c0.1-0.9,0.2-1.5,0.3-2.4c1.7,0.7,3.2,1.6,4.8,2c1.1,0.3,2.7,0.4,3.6-0.2c2.7-1.5,5.2-3.4,7.8-5.3
		c0.7-0.5,1.1-1.4,1.6-2.1c-2.7,2.2-3.2,2.5-6.8,3.2c-1,0.2-2.1,0.3-2.8,0.9c-2,1.9-4,0.1-5.9,0.5c-0.2-0.3-0.4-0.6-0.5-0.9
		c1.1-0.6,2.2-1.2,3.2-1.8c-0.2-0.3-0.4-0.5-0.6-0.8c-1,0.5-2,1-3,1.4c-1,0.4-2.1,1.6-3.2,0.1c-0.9-1.3-1.5-2.6,0.5-3.7
		c-2.1,0.4-3.4,2.9-5.9,1.4c0.4-0.8,0.8-1.6,1.2-2.5c-2.6-0.3-5.3,0.2-7-2.8c1.2-0.3,2.1-0.5,3-0.8c0.8-0.2,2-0.3,2.3-0.9
		c1.3-2.6,2.8-1.5,4.5-0.5c2.1,1.1,4.2,2.1,6.3,3.2c0.1-0.1,0.1-0.2,0.2-0.4c-0.6-0.6-1.3-1.1-2-1.8c1.7-1.4,3-0.3,4.1,0.4
		c3.3,1.9,6.9,1.9,10.5,1.4c0.6-0.1,1.2-0.6,1.6-1.1c0.2-0.3-0.1-1.2-0.4-1.3c-0.5-0.2-1.2,0-1.7,0.1c-0.8,0.2-1.5,0.6-2.2,1
		c0-0.2,0.1-0.5,0.1-0.7c-1.3-0.5-2.6-1.1-4-1.7c0.3-0.6,0.6-1.3,1-2.1c-3.6,0.9-6.7,0-9.6-1.3c0-0.3,0-0.5,0-0.8
		c1.3-0.6,2.5-1.1,4.1-1.9c-1.8-1.6-3.3-3.1-5.1-4.7c0.9-0.5,1.6-0.9,1.9-1.1c-0.8-1.7-1.5-3-2.1-4.2c0.3-0.2,0.5-0.4,0.8-0.6
		c1.1,0.6,2.3,1.2,3.4,1.8c1.1,0.6,2.2,1.5,3.4,1.8c0.9,0.2,1.9-0.3,2.9-0.6c-0.2-0.8-0.3-1.5-0.6-2.3c-0.3-0.7-0.7-1.4-1.4-2.7
		c1.8,0.4,2.9,0.6,4.2,0.9c0-0.8-0.1-1.4-0.1-2c-3-0.2-3-0.2-2.4-3.1c0.1-0.7-0.3-1.6-0.7-2.3c-0.7-1.4-1.6-2.7-2.4-4
		c0.2-0.2,0.3-0.4,0.5-0.7c1,0.4,2,1,3,1c1,0.1,2-0.4,3.5-0.8c0.7,1.8,1.4,3.9,2.2,6c0.3,0,0.5-0.1,0.8-0.1
		c-0.1-1.4,0.2-2.9-0.3-4.1c-0.6-1.6-1.7-3-2.6-4.5c-0.7-1.2-1.8-2.3-0.8-4.1c1.3,1.2,2.6,2.3,4.3,3.9c0-3.8,0-6.9,0-10
		c0.3,0,0.6,0,0.9,0c0.8,2.4,1.7,4.8,2.5,7.3c1.4-0.5,1.9-2.9,4.2-1.7c-1.2,4-5.8,6.6-4.6,12c1.4-2.1,2.5-3.9,3.8-5.9
		c2.3,2.9,4.2-0.9,6.7-0.1c-1,1.2-1.8,2.2-2.7,3.3c1.1,0.9,2.1,1.6,3,2.3c0,0.2-0.1,0.4-0.1,0.6c-1.8,0.1-3.6,0.2-5.6,0.3
		c1.3,1.3,2.5,2.5,3.6,3.7c-0.1,0.3-0.2,0.7-0.3,1c-1.8,0.1-3.8,0.8-5.5,0.3c-1.6-0.5-3.1-0.6-3.1,1.1c0,3.1,0.4,6.1,0.7,9.6
		c5.6-2.1,6.6-7.2,9.5-11.1c3,3.4,4.2-1.5,7-1.1c-0.6,1.4-1.1,2.7-1.7,4.1c1.1,0.4,2.1,0.8,3.4,1.2c-1.3,1.6-2.4,2.9-3.5,4.4
		c1,0.4,1.8,0.6,2.3,1.1c0.4,0.4,0.7,1.6,0.4,1.8c-1.4,1.2-2.6,2.9-4.9,2.5c-0.5-0.1-1,0.5-1.6,0.8c0.4,0.4,0.7,0.9,1.2,1.1
		c1.2,0.4,2.4,0.7,3.7,1.1c-1.8,1.7-3.3,3.1-4.9,4.5c0.2,0.2,0.4,0.5,0.6,0.7c1-0.4,2-0.9,2.9-1c0.8,0,1.7,0.4,2.4,1
		c0.8,0.6,1.3,1.7,2.2,2.2c2.1,1.2,4.3,2.2,6.8,3.5c-2.2,1.9-4,3-6.4,2.5c-1.5-0.3-2.3,0-2.8,1.4c-0.2,0.4-0.6,0.8-1.4,1.7
		c-1.1-1.4-2-2.6-3.1-3.7c-0.8-0.8-1.7-1.1-2,0.4c-0.4,2.5-1.7,1.6-2.9,0.8c-0.6-0.4-0.8-1.2-1.4-2.1c-1,1.6-1.5,2.4-2.2,3.5
		c1.8,0.3,3.3,0.5,4.9,0.8c-0.2,1-0.3,1.7-0.4,2.4c2.7,1.6,4.9,0.7,7.1-0.7c1.9-1.2,5.2-0.6,6.4,1.4c0.8,1.3,1.6,1.5,2.8,0.9
		c3.6-2,6.7,0.2,9.8,1.3c0.1,0,0.1,0.3,0.2,0.7c-2.9,1.1-5.6,2.5-7.2,5.6c-1.3-0.5-2.5-1-4.2-1.7c0.8,1.3,1.3,2.1,1.8,2.9
		c-0.1,0.2-0.2,0.4-0.4,0.5c-1.2-0.5-2.5-0.9-3.6-1.5c-1.3-0.6-2.1-0.5-2.2,1.1c-0.1,1.8-1,1.7-2.3,1c-0.8-0.4-1.6-0.6-2.5-0.8
		c-0.9-0.2-1.8-0.2-2.7-0.4c-0.7-0.2-1.3-0.6-2-0.8c-0.2,0.2-0.3,0.5-0.5,0.7c1.1,0.9,2,2.1,3.2,2.8c4.9,2.5,9.9,4.3,14.7-0.7
		c0.6,1.4,1,2.2,1.4,3.2c1.5-0.7,2.7-1.3,4-2c0,0.2,0,0.4-0.1,0.6c1.7,0.5,3.4,1,5.3,1.6c-1.4,1.9-4.7,1.6-4.3,4.8
		c-1.5-0.3-2.7-0.6-4.1-0.9c-0.3,2.1,0,4.5-3.2,3.7c-0.1,2.1-1,3.5-3.1,3.2c-2.5-0.3-4.9-0.9-7.6-1.5c-0.6,1.5-1.8,1-3.2,0.5
		c-1.1-0.4-2.4-0.5-3.6-0.7c0,0.3-0.1,0.6-0.1,0.8c6,3.6,12,7.4,19.7,3.1c-0.1,1.6-0.2,2.6-0.2,3.4c0.3,0.1,0.5,0.2,0.6,0.2
		c0.6-0.1,1.3-0.1,1.8-0.3c4.4-2.1,7.6,1.3,12,2.3c-3.4,2.7-6.8,4.6-7,9.6c-3.7-2.2-6.8,1.8-10.4,0.2c-0.2-0.1-0.7,0.1-0.8,0.3
		c-0.9,1.6-2.2,0.9-3.4,0.7c-1.4-0.3-2.8-0.7-4.1-1c-0.1,0.2-0.3,0.5-0.4,0.7c1.5,1.2,2.9,2.6,4.6,3.4c4,1.9,8.1,1.8,12.1-0.4
		c0.8-0.5,2.3,0.3,3.6,0.5c-0.4,0.8-0.6,1.3-0.9,2c0.5,0.1,0.8,0.3,1,0.2c2.8-1.1,5.2,0.2,7.6,1.3c2.1,1,2.2,1.7,0.6,3.1
		c-1.4,1.1-3.5,1.7-4.3,3c-1.4,2.4-3.2,2.1-5.3,1.9c-0.4-0.1-0.9,0.1-1.7,0.2c1.3,1.1,2.2,1.9,3.4,3c-2.9,1-5.2,2.6-8.1,1.5
		c-0.5-0.2-1.3,0.6-1.9,0.9c0.4,0.5,0.7,1.2,1.2,1.3c1.3,0.3,2.7,0.5,4.1,0.6c4,0.1,8,0,12,0c-0.2,1-0.4,1.9-0.6,2.7
		c-0.9,0.3-1.6,0.5-2.4,0.8c0.6,1,1,1.8,1.6,2.9c-1.7,0-3,0-4.6,0c1.1,2.4,2.9,3,5,2.6c2.5-0.5,5-1.3,7.6-1.9c0.7-0.2,1.5-0.2,2-0.2
		c-0.3,1.9-0.3,3.6-0.9,5c-0.6,1.3-1.8,2.4-2.8,3.5c-0.2,0.2-0.9,0.2-1,0.3c-0.8,2.9-2.9,1.8-4.6,1.4c-1.9-0.5-3.6-0.6-5.5,0.7
		c4.2,2.3,8.1,4.1,12.8,2.6c0.8-0.3,2.2-0.4,2.5,0c1.3,1.6,2.7,1,4.2,0.7c1.3-0.3,2.7-0.3,4-0.5c0.1,0.4,0.3,0.7,0.4,1.1
		c-2.3,1.7-4.7,3.4-7.1,5.1c0.2,0.3,0.5,0.9,0.9,1.5c-1.2,0.2-2.1,0.3-3.1,0.5c0.1,0.8,0.3,1.4,0.4,2.3c-3-0.7-5.7-1.5-8.1,0.9
		c1.5,0.7,3,1,4.6,1.4c2.2,0.5,4.9,0.4,6.6,1.6c2.6,1.8,5,0.8,7.7,0.7c-1.8-1.3-3.6-2.5-5.4-3.8c0.1-0.3,0.2-0.5,0.3-0.8
		c2.3,0,4.5,0,6.8,0c-2-2.1-4.8-2.9-5.8-5.9c3.6-0.4,6.9-0.9,10.3-1.3c-1.5-5.5-7.1-5.4-10.6-8c0-0.2,0.1-0.4,0.1-0.6
		c2-0.3,3.9-0.5,6-0.8c-0.4-2.3,1.5-2,3.6-2.1c-2.2-1.6-4-3-5.8-4.3c0.1-0.2,0.2-0.4,0.3-0.7c2.1-0.3,4.3-0.7,6.4-1
		c0.9-0.1,1.8-0.2,2.6,0c2.8,0.8,6-0.4,7.7-3c-7.6,2.2-7.6,2.2-8.4,0.5c-0.7,0.1-1.5,0.2-2.3,0.3c-0.2-0.7-0.4-1.2-0.6-1.9
		c-0.8,0.2-1.6,0.3-2.3,0.5c0.1-0.2,0.1-0.3,0.2-0.5c-1.3-0.7-2.7-1.5-4.1-2.3c2.8-2.2,5.7-2.3,8.7-0.5c0.7-0.4,1.3-0.6,1.9-0.5
		c1.9,0.3,3.9,0.7,5.8,1c0.6,0.1,1.2-0.4,1.9-0.7c-3.5-1.2-6.7-2.3-10.1-3.4c0.7-0.6,1.2-1,1.4-1.2c-0.8-2-1.4-3.7-2.3-5.8
		c2.3,0.6,4.1,1.2,6.4,1.8c-0.3-1.4-0.5-2-0.6-2.7c0.6-0.2,1.1-0.4,1.3-0.4c-0.8-2-1.5-3.8-2.3-5.8c2.6-0.5,4.5-0.2,5.3,2.5
		c0.2-0.1,0.4-0.3,0.6-0.4c-0.8-1.9-1.5-3.7-2.4-5.8c1,0.4,1.6,0.7,2.3,0.9c0.3-1.4,0.6-2.7,0.9-4c0.2,0,0.4,0,0.5,0
		c0.3,1,0.7,1.9,1,2.9c0.7,0,1.3-0.1,2-0.1c-0.8,1.9-1.5,3.6-2.2,5c2.1-0.8,3.9-1.5,5.6-2.2c0.2,1.5,0.4,2.5,0.6,3.5
		c-0.9,0.1-1.7,0.2-2.8,0.4c0.7,0.7,1.2,1.2,2.1,2.2c-1.5,0.2-2.6,0.3-3.6,0.6c-0.7,0.3-1.7,1-1.6,1.5c0.1,1.2,0.6,2.4,1,3.6
		c0.9-0.7,1.9-1.4,2.8-2.1c0.2-0.1,0.3-0.4,0.4-0.6c1-2.5,3.2-2.8,5.3-3.1c0.4,1.1,0.8,2,1.2,3.1c-0.2,0.4-0.5,1.1-0.9,1.9
		c0.6,0.4,1.2,0.7,2.2,1.2c-2,1-3.2,1.6-4.7,2.3c0.8,0.5,1.4,0.9,2.1,1.4c-0.5,0.8-1,1.4-1.1,1.6c2.5,1.4,5,2.8,8,4.4
		c-5.3,2.6-10,1.6-14.8,0.9c0.6,0.5,1.3,0.9,2,1.2c0.6,0.3,1.6,0.3,1.8,0.7c1,2.2,2.5,1.3,4.1,1c1-0.2,2.1-0.4,3.1-0.3
		c1.9,0.3,3.8,0.9,5.7,1.3c1.1,0.2,2.1,0.4,3.5,0.6c-4.4,4.1-9.3,5.2-15.2,4.6c2.5,2.5,4.9,2.5,7.7,2.3c2.8-0.2,5.6,0.1,8.4,0.2
		c0,0.2,0,0.4,0.1,0.7c-2.6,1.9-5.1,3.8-7.7,5.5c-0.4,0.3-1.2,0.1-1.8,0.1c-2.2-0.1-4.4-0.3-6.6-0.5c2.7,2.4,5.7,3.5,9.2,2.7
		c0.5-0.1,1.4-0.2,1.5,0.1c0.7,1.6,2.1,0.8,3.2,1c1.7,0.3,3.4,0.7,5.6,1.2c-1.3,1.1-2.1,1.5-2.5,2.2c-1.5,3-3.9,3.4-6.9,3.3
		c-1.8-0.1-3.6,0.4-5.8,0.7c2,2.3,3.9,2.7,7.1,1.9c0.9-0.2,1.9-0.7,2.7-0.5c2.2,0.6,4.4,1.5,6.6,2.3c1.2,0.5,1.4,1.2,0.3,1.9
		c-0.5,0.3-1,0.7-1.6,0.9c-3.4,0.9-4.6,5.6-9.1,4.4c0.1,0.4,0.2,0.7,0.3,1.1c3.3,0,6.7,0,10,0c0.1,0.2,0.1,0.5,0.2,0.7
		c-1,1.3-2.1,2.6-3.2,3.9c2.4,0,5.1,0,7.9,0c0,2.4-0.6,4.3-2.6,4.9c-1.7,0.5-3.7,0.4-5.5,0.6c4.2,2.6,8.9,1.4,13.7,2.5
		c-3,2.5-5.3,5.5-9.7,5.3c0.1,0.2,0.2,0.5,0.3,0.7c4.3,0.8,8.5,1.6,12.8,2.4c-0.2,0.4-0.9,1.2-0.7,1.7c0.6,1.8-0.6,2-1.8,2.5
		c-1.7,0.6-3.4,1.4-5.1,2c-1.2,0.4-2.6,0.9-3.8,0.9c-2.1,0-4.2-0.5-6.4-0.6c-1.2-0.1-2.4,0-3.6,0c-0.1,0.3-0.1,0.7-0.2,1
		c2.7,0.8,5.3,1.9,8,2.2C268,202.6,273,202.8,277.7,205z M197,197.7c-2-0.7-3.9-1.5-5.9-2.2c-0.2,0.7-0.4,1.3-0.5,1.7
		c-1.8-0.4-3.4-0.8-5.1-1.1c4.5,4,12.8,7.5,15.5,7.1C200.5,200.7,199.1,198.8,197,197.7c2-0.3,4.1-0.6,6.5-0.9
		c-1.2-1.8-2-2.6-3.5-1.4c-0.4,0.3-1,0.4-1.5,0.3C196.7,195.4,196.5,196.3,197,197.7z M135.8,127.8c-2.4-1.6-3.5-0.7-4.2,0.3
		c-2.3,0.5-4.4-0.9-6.1,1.1c-0.9,1-2.1,1.3-3.5,0.6c-0.9-0.4-2-0.4-3-0.6c-2.2-1.7-2.4-1.7-4.5,0.8c-0.2,0.3-0.6,0.5-0.9,0.7
		c-1.5,0.9-3.4,1.5-4.5,2.8c-1.1,1.3-2.3,1.6-3.8,1.5c-0.8,0-1.6,0-2.7,0c2.4,2.3,3.5,2.7,6.6,2.5c4.4-0.3,8.8-0.6,13.2-0.9
		c1.7-0.1,3.4-0.6,5.1-0.9c0-0.2,0-0.4-0.1-0.6c-0.8-0.2-1.7-0.3-2.4-0.7c-0.6-0.3-1-1-1.5-1.5c0.5-0.3,1.1-0.8,1.6-0.9
		c2.4-0.7,4.9-1.2,7.3-2C133.5,129.5,134.5,128.6,135.8,127.8z M224.8,172.4c0-0.1-0.1-0.2-0.1-0.4c-4.5,0.3-9.1,0.6-13.6,1.1
		c-1.7,0.2-3.4,0.6-4.7,2.3c-0.7,1-2.7,1.2-4.2,1.4c-1.4,0.2-2.9-0.3-4.4-0.4c-4.2-0.3-8.5-0.6-12.7-0.9c-0.7,0-1.4-0.1-2-0.1
		c-0.1,0.2-0.1,0.4-0.2,0.6c1,0.7,1.9,1.5,3,2c5.2,2.7,10.7,4,16.5,3.9c1.7,0,2.8-0.5,3.2-2.6c-0.4-0.2-1-0.4-1.6-0.7
		c0.1-0.2,0.2-0.5,0.3-0.7c5.1-0.5,10.2-1,15.6-1.5c-0.8-0.7-1.2-1-1.9-1.6C220.4,173.9,222.6,173.2,224.8,172.4z M121.6,149.1
		c-0.1,0.1-0.9,0.7-0.8,1c0.7,2.5-1.1,3.7-2.8,5.3c4.8,0.1,9-0.5,12.7-3.1c0-0.3,0-0.6,0-0.9C127.8,150.7,125,150,121.6,149.1z
		 M203.8,193c0.6,2,1.9,3.2,3.7,3.4c3,0.4,6,0.4,8.4-1.7C212.2,192.1,208.2,191.6,203.8,193z M106.7,186.9c2.8,1.4,6.8,1.4,9.9-0.3
		c-1.4-0.4-3-1-4.3-0.7c-1.2,0.3-2,0.6-3.1-0.2C107.7,184.6,106.9,185.3,106.7,186.9z M31.2,194.3c0-0.3,0.1-0.6,0.1-0.9
		c-1.6-0.2-3.3-0.8-4.7-0.4c-1.1,0.3-1.8,0.6-2.8-0.2c-1.4-1.1-1.8-0.9-2.7,1.5C24.5,194.3,27.8,194.3,31.2,194.3z M132.8,70.5
		c-0.2,0.2-0.4,0.4-0.5,0.7c0.4,0.6,0.6,1.5,1.2,1.8c1.5,0.9,7.5-0.4,8.6-1.6c-1-0.2-2.4-1-3.1-0.6
		C136.7,72.3,134.8,71.7,132.8,70.5z M114.2,148.2c-2.2-1.8-4.8-1.2-7.5-1.3C108.5,149.5,110.6,149.9,114.2,148.2z M103.8,141.6
		c0.1-0.2,0.1-0.4,0.2-0.6c-2.1-0.7-4.3-1.5-6.4-2.2c-1.4-0.4-1.9,0.1-2.3,1.8C98.1,141,100.9,141.3,103.8,141.6z M56.9,92.7
		c0.1-0.6,0.1-0.6,0.1-0.7c-3.3-0.1-6.5-0.2-10.1-0.2c0.6,0.5,1.4,1.5,2.1,1.5C51.6,93.3,54.3,92.9,56.9,92.7z M113.7,168.7
		c0,0.3,0,0.5,0,0.8c2.4,1.6,4.6,1.3,6.3-1.4C117.6,168.3,115.7,168.5,113.7,168.7z M160.9,37.7c-0.2-0.2-0.3-0.5-0.5-0.7
		c-1.2,0.9-2.3,1.9-3.7,2.5c-3,1.5-3,1.4-2.8,2.6C156.3,40.6,158.6,39.2,160.9,37.7z M68.8,65.4c0.2,0.3,0.3,0.6,0.5,0.8
		c2.3-1.3,4.6-2.6,7-3.9c-0.1-0.2-0.2-0.4-0.3-0.6C73.5,63,71.2,64.2,68.8,65.4z M99.2,185c1,0.4,2,1,3.1,1.3
		c0.5,0.1,1.1-0.2,1.6-0.4c0.1-0.1,0.1-0.9-0.1-1c-0.5-0.3-1.1-0.6-1.6-0.5C101.3,184.5,100.3,184.8,99.2,185z M207.3,183.5
		c2.4,0,4.5,0,6.6,0c-1-0.2-2.1-0.5-3.2-0.8C209.6,182.5,208.5,181.7,207.3,183.5z M144.6,31.9c-0.2,0.3-0.5,0.6-0.7,0.9
		c1.2,1,2.5,1.9,3.7,2.9c0.2-0.3,0.4-0.5,0.7-0.8C147.1,33.9,145.9,32.9,144.6,31.9z M62.9,60.8c-0.2-2.3-1.7-3-3.4-3.3
		c-0.1,0.2-0.2,0.4-0.4,0.5C60.4,58.9,61.6,59.9,62.9,60.8z M146.9,23.7c-0.3,0.1-0.6,0.2-0.9,0.4c0.7,1.5,1.4,3,2,4.5
		c0.3-0.1,0.5-0.2,0.8-0.3C148.2,26.7,147.6,25.2,146.9,23.7z M221.7,185.9c0-0.2,0-0.4,0-0.6c-1.4,0-2.8,0-4.2,0c0,0.2,0,0.4,0,0.6
		C218.9,185.9,220.3,185.9,221.7,185.9z M63.2,54c0.3-0.2,0.5-0.3,0.8-0.5c-0.6-1-1.3-2.1-1.9-3.1c-0.2,0.1-0.4,0.3-0.7,0.4
		C62,51.9,62.6,52.9,63.2,54z M228,141.2c0-0.3-0.1-0.5-0.1-0.8c-1.2,0.1-2.4,0.2-3.7,0.2c0,0.3,0,0.6,0.1,0.8
		C225.6,141.4,226.8,141.3,228,141.2z"/>
</g>
</svg>
