<?xml version="1.0" encoding="utf-8"?>
<!-- Generator: Adobe Illustrator 19.0.0, SVG Export Plug-In . SVG Version: 6.00 Build 0)  -->
<svg version="1.1" id="Layer_1" xmlns="http://www.w3.org/2000/svg" xmlns:xlink="http://www.w3.org/1999/xlink" x="0px" y="0px"
	 viewBox="0 0 227.8 431" style="enable-background:new 0 0 227.8 431;" xml:space="preserve">
<style type="text/css">
	.st0{fill:none;stroke:#000000;stroke-width:3;stroke-miterlimit:10;}
</style>
<g>
	<path d="M161.3,62.3c-7.3,2.7-9.4,5.3-9.8,20.4c0,0,0.5,11.1-2.5,15.6s-13.5,5.4-13.5,5.4s6.6,10.1-1.1,30.4c0,0,3.4-5.7,7.4-17.9
		s12.8-10.4,11.8-17.4s-2.3-15.2,7.5-16.9s14-7.3,12.8-12.6C172.6,62.9,164.8,60.9,161.3,62.3z M164.5,68.3c0,0-3.5,2.5-3.5,4.4
		C161,72.6,159,66.3,164.5,68.3z M166.1,79.1c-7.6,2.3-11.2-1-11.2-1s4,3.1,11.2,0s4.8-8.8,4.8-8.8
		C171.5,70.2,173.8,76.8,166.1,79.1z"/>
	<path d="M135.9,79.2c0.4-1.9,1.4-4.3,0.4-29.9c0,0-3.1,21.2-2.3,29.9c0.6,5.9,0.6,17.5,0.6,17.5S135,84.1,135.9,79.2z"/>
	<path d="M126.5,116.1c4,12.3,7.6,17.9,7.6,17.9c-7.7-20.4-1.2-30.4-1.2-30.4s-10.5-0.9-13.5-5.4s-2.5-15.6-2.5-15.6
		c-0.4-15-2.5-17.6-9.8-20.4c-3.5-1.3-11.3,0.7-12.7,7c-1.2,5.3,3.1,10.8,12.8,12.6s8.5,9.9,7.5,16.9S122.5,103.9,126.5,116.1z
		 M107.5,72.6c0-1.9-3.5-4.4-3.5-4.4C109.4,66.3,107.5,72.6,107.5,72.6z M102.3,79.1c-7.6-2.3-5.4-8.9-4.8-9.8c0,0-2.4,5.8,4.8,8.8
		s11.2,0,11.2,0S109.9,81.4,102.3,79.1z"/>
</g>
<path d="M206.9,37.8C194.2,15.1,175.3,3.3,139,3S81.1,15.7,67.8,39.8C54,64.5,36.5,105.5,51.5,128.3s34.4,26,42.3,28.3
	s28.7,10.8,25.4,24c0,0,13.8-21.1-18.6-35c-14-6-24.7-22.4-31.1-38.8c-5.3-13.5-7.7-31-5.3-43.8c2.4-13.2,12.3-43.4,43.6-44.2
	c22.7-0.6,29.5,17.2,29.5,17.2s9.5-19.3,39.2-15.5s39.3,37.8,33.8,59.5s-18.5,58-59.3,70.9c-28.5,9-17.8,29.8-17.8,29.8
	S129,170,155,163c20.5-5.5,46.8-8.3,63.1-30.5S219.5,60.3,206.9,37.8z M102.4,152.9c0,0-11.7-6.1-27-22C60,115.1,58,106.4,57,101.8
	c-1-4.7,0-15.8,0-15.8S62.7,126.5,102.4,152.9z M137.9,29c0,0-5.7-10.4-28.1-12.8h58.9C168.7,16.3,143.8,19.5,137.9,29z
	 M205.7,117.3c-3.7,9-17.8,20.7-30.5,27.2s-22.4,8.5-22.4,8.5c43.8-13.3,58.3-58.6,58.3-58.6S209.4,108.3,205.7,117.3z"/>
<path d="M211.7,147.8c0,0-6.7,13.8-24.7,14.2c-18,0.3-30.3,6.9-31.4,9.7c0,0,13.5-7.1,21.4,13.5c9.1,23.7-2.5,44.8-29,66
	c0,0,2.3,8.7,1.5,16.2c0,0,26.7-22.8,43.3-67.3C209.5,155.4,207.2,157.9,211.7,147.8z"/>
<path d="M210.4,183.1c0,0,9.5,44.6-9.5,87.5c-5.6,12.5-17.2,18-18.3,5.7c-1.1-12.3,0.7-19.7,3.8-25.9c3.1-6.2,8.2-16.5,8.2-16.5
	s-8.5,21.4-4.6,23.7c3.9,2.3,8.4-3.7,12.6-14.7C206.8,231.8,213.4,219.6,210.4,183.1z"/>
<path d="M209.5,160.4c0,0,6,62.7-66.3,142.8c0,0-1.2-9.7,7.1-25.4c2.6-4.9,2.8-7.9,3.6-9.5C154,268.4,188.8,243.5,209.5,160.4z"/>
<path d="M134,233.3c0,0,18.3,23.7,11,41.9S134,292.8,127,309.3c-7,16.5-10.2,47-32.2,49.2c0,0-2.2-0.3,0-9.8s11.3-33.7,27-52.7
	c15.7-19.1,23.7-35.1,8.5-58.8C130.4,237.1,132.2,235.3,134,233.3z"/>
<path d="M134.4,260.1c0,0,2.3,5.6-3,16.8c0,0-19,8.5-29.5,28.7c0,0-2-1.2-3.5-5C98.4,300.6,109,275.9,134.4,260.1z"/>
<path d="M94.5,307.9c0,0,2,2.3,3.4,4.2c0,0-4.5,8.3-4,19.6C93.9,331.7,91.3,315.5,94.5,307.9z"/>
<path d="M137,230.8l2.1,3.3c0,0,31.1-19.1,22.5-51.6C161.7,182.6,168.9,210.4,137,230.8z"/>
<path d="M140.6,236.7l2,3.7c0,0,24.3-14.4,27.4-40.3C170,200.1,164.6,224.7,140.6,236.7z"/>
<path d="M144.8,243.9c0,0,1.1,2.3,1.7,3.8c0,0,18.5-14.3,23.6-26.4C170,221.3,158,238.3,144.8,243.9z"/>
<path d="M127.3,226.2c0,0-1.8,2.3-3.5,3.8c0,0-19.3-12.1-22.4-32.4c-1.4-9.1,6.5-16.6,15.2-12.8c3.7,1.6,11.2,8.1,7.8,16.1
	c-1.1,2.7-4.8,2.6-4.8,2.6s5.4-2.3-0.6-6.3c-4.2-2.9-7,0.8-7.6,2.9C110.9,202.3,107,213.3,127.3,226.2z"/>
<path d="M134.3,202.8c0,0-3.6-1.1-2.6-4.1s5.8-3.4,7.8-2.5s6,5.5,4.1,10.7c-1.9,5.2-11,20.7-24.4,31.8s-23,23.4-26.3,28.6
	c0,0-0.8,10.1,2,18.9c0,0,2.8-14.5,22.5-39.8c5.4-6.9,22.4-21.1,29.3-30.6c6.9-9.5,12.5-20.3,6.2-29.4s-16-3-18.3-1.2
	c-2.3,1.8-6.7,5.5-5.4,13.1C129.9,202.9,134.3,202.8,134.3,202.8z"/>
<path d="M117.4,234.2l-3.1,2.8c0,0-28.2-21.3-15.9-51.9C98.4,185.1,87.8,213.4,117.4,234.2z"/>
<path d="M111.3,239.4l-2.4,2.5c0,0-21.3-15.5-18-39C90.9,202.9,88.7,221.7,111.3,239.4z"/>
<path d="M106.2,243.8l-2,2.8c0,0-11.4-2.9-18.3-27.9C85.9,218.6,93.5,241.2,106.2,243.8z"/>
<path d="M84.8,227c0,0,3.4,12.4,10.6,18.4c0,0-20.1,28.9,9.2,69.4C104.5,314.8,63.8,273.3,84.8,227z"/>
<path d="M42.3,112.3c0,0,1.5,17.8,13.5,29.8s15.5,33.3,6.8,43.1c-11.3,12.8-20.8,22.6-24.5,29.4c0,0-2.5-11.1-0.5-28.1
	c0,0-31.2,28.3-33.7,123.3c0,0-1.2-99.5,21.9-148.8C44.4,121.3,42.3,112.3,42.3,112.3z"/>
<path d="M67.4,148.5c0,0,20,34.4,8.6,75.7c-11.5,41.8-16.2,45.7-24.5,49.8c0,0,4.3-24.7,5.2-36c0,0,7.5,4.7,12.8-11.1
	C74.9,211.3,83.6,187.1,67.4,148.5z"/>
<path d="M34.5,192.9c0,0-3,97.8-15.7,126.9c0,0,5.3-62.7,6.3-109.9C25.2,209.9,29.2,201.3,34.5,192.9z"/>
<path d="M23.2,213.1c0,0-5.7,121-8.5,138.5c0,0-4.4-55.8,1.7-117.8C16.4,233.8,18.9,222.4,23.2,213.1z"/>
<path d="M13.5,241.9c0,0-4.2,47.5-3.2,71s2.8,41.2,3.2,60.3C13.5,373.3-1,313.5,13.5,241.9z"/>
<path d="M79.5,279.1c0,0,1.5,8,5.6,14.4c0,0-22,15-19.6,39.8c0,0-20.3-33.4,0.9-56.9c0,0-7.3,18.8-1.9,22S72.5,286.8,79.5,279.1z"/>
<path d="M65.5,266c0,0-9.3,12.8-18.6,16.3c0,0,5.3-25.7,5.9-35.8c0,0-4.8,9.9-14.1,10.6c0,0-4.4,4.4-6.4,6.6c0,0-0.6,7.8-1.9,16.6
	c0,0-1.4,37.8,29.9,59.8c0,0-25.6-24.9-10.5-47.6C60.1,277,65.5,266,65.5,266z"/>
<path d="M71,166.8c0,0,7.4,57.2-12.1,66.5c0,0,3.5-13.7,3.7-22c0,0,3,5.9,6.3-3.8C72.2,197.8,71,166.8,71,166.8z"/>
<path d="M61,191.9c0,0-0.9,53.8-19.3,59.7c0,0,3.7-6.8,6.3-20.2c0,0-0.1,7,3.4,2.8S58.9,212.6,61,191.9z"/>
<path d="M49.9,204.1c0,0-3.8,49-17.3,54c0,0,1.4-7.6,2.8-20.6c0,0,1.2,4.6,4.5,2.9C43.2,238.8,46.9,226.1,49.9,204.1z"/>
<path d="M73.5,153c0,0,7.6,7.8,21,9.8s19.2,8.8,19.7,12.8c0,0-13.8-6.3-25.2,11.9c-6.7,10.6-3.9,18.5-9.5,34.4
	C79.5,221.8,88.9,187.4,73.5,153z"/>
<path d="M29,289c0,0-18.7,91.3-15.9,128.3c0,0,3.4-0.8,3.4-5.3S18,376.8,29,318.3c0,0-10.6,71.8-10.2,94.8c0,0,8.9-6,10.2-14.3
	c0,0-3.1-8.5,6.6-65.5c0,0-6.4,52.8-5.2,59.3c0,0,11.2-9,10.8-13.3s-4.2-14.1,0.5-38c0,0-1.2,25,2.6,35c0,0,9.3-3,9-9.5s-1-13,0-20
	c0,0,1.2,18,2.5,21c0,0,7.8-3.5,7-8.3s0.1-11.3,0.1-11.3S32,338.5,29,289z"/>
<path d="M150.4,274.1c0,0-16.8,25.3-15.5,41.8c1.3,16.5-0.7,21.2-5.3,26.5c0,0,1.8,9.2,5.3,13.7c0,0,12.3-11.2,7-35.3
	C136.5,296.6,144.4,289.6,150.4,274.1z"/>
<path d="M130.2,315.8c0,0-20.2,38.8,0,51.8c12.3,8,17.8,17.7,17.8,17.7s-4.5-9.8-6.7-16.5c-2.2-6.7-9.5-11.8-11.8-15.6
	C127.2,349.3,121.3,335.9,130.2,315.8z"/>
<path d="M117.5,344.8c0,0-5.5,9.4-7,16.3c0,0,4.3,2.1,7.8,4.6s5.9,4.3,8.3,3.9C126.5,369.5,113.7,361.4,117.5,344.8z"/>
<path d="M90.6,303.3c0,0-17.4,17-20.2,30s1.8,27.5,3.6,36.3c0,0,5.5,0.3,8.4,0.7s7.6,0.3,6.8-4.8s-3.8-7.7-9.8-15
	C73.4,343.3,70.3,325.4,90.6,303.3z"/>
<path d="M89.9,309.8c0,0-9.4,7.6-7.1,19.4s-2.7,18.6-2.7,18.6s4.4,3.9,7.1,8.3c0,0,5.3-10.7,0.1-25.5S89.9,309.8,89.9,309.8z"/>
<path d="M68.9,358.4c0,0,0,6.1,3.6,10.6c0,0-5.3,1-7,2.9C65.5,371.9,65.9,365.1,68.9,358.4z"/>
<path d="M168.3,406.8c0,0-2,19.9-27.3,19.9c0,0,14.4-3.4,19.4-12.6c0.9-1.6,1.5-4.4-0.4-6.1s-2.1-5.8,0.4-7.5
	S168.6,402.1,168.3,406.8z"/>
<path d="M149.4,386.5c0,0,1.5,7.9-3.6,15.5c0,0,2.9-0.1,3,4.3c0.1,4.4,2.6,5.7,7.2,4.4c4.6-1.3,1.7-1.6,0.9-6
	c-0.8-4.4,1.8-6.4,2.9-6.6c0,0-5.5,1-6.5-3.2C152.3,390.8,149.4,386.5,149.4,386.5z"/>
<path d="M138.2,384.6c0,0,6-4.6,8.5,3.2c2.7,8.6-7.7,25.4-17.1,32c0,0,9.9-13.3,10.4-22c0.4-6.5-4.5-3.3-4.3-7.8
	C135.9,386.4,138.2,384.6,138.2,384.6z"/>
<path d="M111.7,370.1c0,0,3.9-4.7,7.2-0.6c3.3,4.1,6.2,3.9,10.7,2.3c0,0,7,2,12.1,8.9c0,0-6-0.2-7.4,4.4c-1.4,4.6-0.9,9.1,2.4,11
	c0,0-5.6,5.8-10.6,0c-1.8-2.1-0.5-5.5,0.6-7.7c1.1-2.2,0.2-3.4-2.2-4.1s-6.1,3.1-7,1.1C117.5,385.6,118.7,377.3,111.7,370.1z"/>
<path d="M94.3,371.3c0,0,6.6-6.6,12.6-1.7c6.1,4.9,10.8,10.4,6,36c0,0,0.1-19.3-5.8-26.5c-5-6.2-8.1-3.5-10.2-3.7
	C94.8,375.2,93.5,372.8,94.3,371.3z"/>
<path d="M93,369.8c0,0-1.9,3.1,0,5.5c1.9,2.4,4.5,1.5,5.4,1c0.9-0.5,3.7-0.1,3.7,1.8s-1.4,6.1-5,5.6c-3.6-0.4-3.7-3.6-5.9-4.9
	s-3.8,0.5-4.4,3.1c-0.6,2.6-3.1,5.8-9.5,5.5c0,0,5-5.2,3.9-10.4c-0.5-2.1-1.6-4.7-1.6-4.7s4.7,1.4,6.8,1
	C88.5,373.1,90.5,370,93,369.8z"/>
<path d="M73.8,371.6c0,0,5.8,0.5,5.3,7.4c-0.4,5.4-2.5,5.9-4.8,7.7c-2.3,1.8-7.6,5.5-3.1,30.6C71.1,417.3,58.4,375.8,73.8,371.6z"/>
<path d="M70,371.6c0,0-7.4,5-5.6,15.9c0,0-2.4,1.7-2.8-5.3C61.2,375.3,66.4,373,70,371.6z"/>
<path class="st0" d="M173.2,26.8c-25-4.3-36.5,15-36.5,15c-7-11.3-11.7-17.1-29-17c-17.3,0.1-36.8,15-40.3,49.7
	c-3.5,34.8,29,73.8,67,74s68.3-44.3,71.5-72.5C208.5,53.9,198.2,31,173.2,26.8z"/>
</svg>
