<?xml version="1.0" encoding="utf-8"?>
<!-- Generator: Adobe Illustrator 19.0.0, SVG Export Plug-In . SVG Version: 6.00 Build 0)  -->
<svg version="1.1" id="Layer_1" xmlns="http://www.w3.org/2000/svg" xmlns:xlink="http://www.w3.org/1999/xlink" x="0px" y="0px"
	 viewBox="0 0 560 560" style="enable-background:new 0 0 560 560;" xml:space="preserve">
<path id="XMLID_120_" d="M557,66.2C557,31.3,528.7,3,493.8,3H66.2C31.3,3,3,31.3,3,66.2v427.6C3,528.7,31.3,557,66.2,557h427.6
	c34.9,0,63.2-28.3,63.2-63.2V66.2z M470.7,116.5L285.9,301.3l-52.8,26.4l26.4-52.8L444.3,90.1L470.7,116.5z M497,248.5L338.7,406.9
	L74.7,486.1l79.2-263.8L312.3,64h79.2L233.1,222.3l-52.8,32.1l-40.9,112.5c27.5,13,41.5,27.1,54.6,54.6l112.5-40.9l32.1-52.8
	L497,169.3V248.5z"/>
</svg>
