<?xml version="1.0" encoding="utf-8"?>
<!-- Generator: Adobe Illustrator 19.0.0, SVG Export Plug-In . SVG Version: 6.00 Build 0)  -->
<svg version="1.1" id="Layer_1" xmlns="http://www.w3.org/2000/svg" xmlns:xlink="http://www.w3.org/1999/xlink" x="0px" y="0px"
	 viewBox="120 0 800 560" style="enable-background:new 120 0 800 560;" xml:space="preserve">
<path id="XMLID_24_" d="M845.5,201c0-9.9-0.8-20.2-3.3-29.7c-10.6-40.5-44.4-65.3-88.2-65.4c-81.4-0.2-162.8,0.1-244.2,0.1
	c-4.5,0-9,0-14.3,0c-0.3-2-0.5-5.6-0.6-7.2c-2.7-59.9-37.6-93.3-97.6-93.3c-36.3,0-72.7,1-109-0.3c-53.8-1.9-95,41.4-94.3,94.3
	c1.5,121.1,0.4,242.1,0.6,363.2c0,8.3,0.2,16.8,2.1,24.8c9.9,42.5,44.6,68.8,90.8,68.8c154.1,0.1,308.1,0.1,462.2,0
	c59.2,0,95.9-36.6,96-96C845.7,373.8,845.7,287.4,845.5,201z M432.9,437.4c-14,14.5-14,14.5-28.4,0.1c-32.5-32.5-65-65-97.5-97.5
	c-8-8-8-9.5,0.1-17.7c33.7-33.8,67.3-67.6,101-101.4c9.4-9.4,10.9-9.4,20-0.3c12.8,12.8,12.8,12.8-0.1,25.8
	c-28,28.1-56.1,56.1-84.8,84.9c2.2,2.3,4,4.3,6,6.2c27.9,27.9,55.8,55.8,83.6,83.6C439.5,428,439.5,430.5,432.9,437.4z M573.3,187.8
	c-10.3,36.4-20.9,72.7-31.4,109.1C524,359,506.1,421,488.1,483.1c-1.4,4.7-2.6,9.4-9.9,9.5c-4.8-1.5-10.8-2.7-16.2-5.1
	c-5.3-2.3-4.3-7.1-3-11.7c10.2-35.1,20.4-70.3,30.5-105.5c18.2-62.9,36.2-125.8,54.6-188.5c1.3-4.3,5.4-11.4,7.6-11.2
	c7.4,0.7,14.8,3.6,21.6,6.8C574.7,178.2,574.3,184.5,573.3,187.8z M726.4,339.7c-34.6,34.6-69.2,69.3-103.8,103.8
	c-6.9,6.9-9.3,6.8-16.2,0c-14.5-14.2-14.5-14.2-0.4-28.3c26.2-26.3,52.4-52.7,78.6-79c1.6-1.6,3-3.3,4.8-5.3
	c-2.1-2.2-3.9-4.2-5.8-6.1c-27.7-27.7-55.4-55.4-83.1-83.1c-7.4-7.4-7.4-9.8,0-17.3c13.7-13.9,13.7-13.9,27.6,0
	c32.8,32.9,65.6,65.8,98.3,98.7C733.6,330.3,733.7,332.5,726.4,339.7z"/>
</svg>
