<?xml version="1.0" encoding="utf-8"?>
<!-- Generator: Adobe Illustrator 19.0.0, SVG Export Plug-In . SVG Version: 6.00 Build 0)  -->
<svg version="1.1" id="Layer_1" xmlns="http://www.w3.org/2000/svg" xmlns:xlink="http://www.w3.org/1999/xlink" x="0px" y="0px"
	 viewBox="0 0 560 560" style="enable-background:new 0 0 560 560;" xml:space="preserve">
<g id="XMLID_4_">
	<rect id="XMLID_5_" x="202" y="198" width="161" height="164"/>
	<path id="XMLID_21_" d="M253.6,163.7c3.3,1.5,7.4,2.3,12.5,2.3c11.9,0,22.9-3.7,33-11.2c10.1-7.5,18.2-17.4,24.3-29.7
		c6.1-12.3,9.1-23.9,9.1-34.7c0-9.6-3.1-17.3-9.4-23.2c-6.2-5.9-14.7-8.8-25.2-8.8c-12,0-22.4,3.8-31.1,11.4
		c-8.7,7.6-13.1,16.1-13.1,25.6c0,8.8,3.2,16,9.5,21.6c6.3,5.6,14.3,8.4,24,8.4c4,0,8.4-0.8,13-2.4c4.6-1.6,8.6-3.8,12-6.5
		c-4.6,10.9-11.3,19.8-19.9,26.7s-16.9,10.3-24.9,10.3c-1.2,0-3.1-0.4-5.8-1.1c-3-0.9-5.3-1.3-6.9-1.3c-1.9,0-3.3,0.6-4.5,1.9
		c-1.1,1.2-1.7,2.9-1.7,4.9C248.6,160.2,250.3,162.2,253.6,163.7z M311,104.1c-1.3,1.1-2.6,2.1-4.1,3c-1.4,0.9-2.9,1.7-4.4,2.4
		c-1.5,0.7-3,1.4-4.6,1.9c-1.6,0.5-3.1,0.9-4.7,1.1c-1.6,0.2-3.1,0.4-4.6,0.4c-6.1,0-11.1-1.6-15-4.7s-5.9-7.4-5.9-12.9
		c0-6.1,2.8-11.7,8.3-16.8c5.6-5.1,12.8-7.6,21.6-7.6c13.6,0,20.3,6.5,20.3,19.5c0,1-0.1,2.4-0.4,4.2c-0.3,1.8-1.1,3.6-2.6,5.3
		C313.7,101.6,312.3,103,311,104.1z"/>
	<path id="XMLID_29_" d="M538,5H24C14,5,6,13,6,23V537c0,9.9,8,18,18,18H538c9.9,0,18-8,18-18V23C556,13,548,5,538,5z M501.9,407
		c-12.8,14.1-24.9,29.7-36.1,46.8c-11.3,17.1-19.5,31.8-24.8,44c-1,2.3-2.3,4-3.7,5.2s-3.1,1.7-5,1.7c-4.8,0-7.2-2.2-7.2-6.6
		c0-1.2,0.4-3.2,1.3-6.1c0.9-2.8,5.5-10.7,13.8-23.7c8.4-13,16.4-24.7,24.1-34.7c7.7-10,14.5-17.6,20.3-24.6h-55
		c-2.1,0-3.9-0.4-5.1-1.7c-1.3-1.3-1.9-2.8-1.9-4.8c0-1.7,0.5-3,1.5-4.1c1-1.1,2.3-1.7,4-1.7l51.3,0.6l18.4-0.6
		c4.6,0,6.9,1.7,6.9,5.2C504.6,403.2,503.7,404.9,501.9,407z M526,362H366h-3v163H202V362H39V198h163V35h164v163h160V362z"/>
	<path id="XMLID_32_" d="M139.4,226.2c-2,0-7.8,1.2-17.6,3.6c-9.7,2.4-16.1,4.5-19.2,6.3c-3.1,1.8-4.6,4.3-4.6,7.8
		c0,1.2,0.4,2.3,1.2,3.2c0.8,0.9,2,1.4,3.5,1.4c2.2,0,7.6-1.6,16.2-4.9c3.9-1.5,6.6-2.5,8-2.9c-6.7,11.7-13.6,27.6-20.7,47.6
		c-7.1,20-10.6,33.2-10.6,39.6c0,3.9,2.1,5.9,6.4,5.9c1.9,0,3.6-0.5,5-1.5c1.4-1,2.3-2.4,2.5-4.2c1.7-11.9,6-27.7,13.1-47.1
		c7.1-19.5,13.1-33.5,18.1-41.9c2.1-3.6,3.1-6.4,3.1-8.4C143.9,227.6,142.4,226.2,139.4,226.2z"/>
</g>
</svg>
