<?xml version="1.0" encoding="utf-8"?>
<!-- Generator: Adobe Illustrator 19.0.0, SVG Export Plug-In . SVG Version: 6.00 Build 0)  -->
<svg version="1.1" id="Layer_1" xmlns="http://www.w3.org/2000/svg" xmlns:xlink="http://www.w3.org/1999/xlink" x="0px" y="0px"
	 viewBox="0 0 560 560" style="enable-background:new 0 0 560 560;" xml:space="preserve">
<style type="text/css">
	.st0{fill:#32360A;}
	.st1{fill:none;stroke:#F5EDDB;stroke-width:4;stroke-miterlimit:10;stroke-dasharray:12;}
</style>
<g id="XMLID_2_">
	<g id="XMLID_5_">
		<path id="XMLID_7_" class="st0" d="M508,281.3c50.3-50.3,62.8-125.7,32.7-186L430.1,203.4L354.7,128L462.8,19.9
			C402.4-7.8,327,2.3,276.8,52.6C229,100.3,216.4,168.2,239.1,226L10.3,454.8c-10.1,7.5-10.1,25.1,2.5,35.2l57.8,57.8
			c10,10.1,25.1,10.1,35.2,0L334.6,319C392.4,341.6,460.3,329.1,508,281.3z"/>
	</g>
	<g id="XMLID_6_">
	</g>
</g>
<g id="XMLID_8_">
	<g id="XMLID_13_">
	</g>
	<g id="XMLID_12_">
		<path id="XMLID_14_" class="st1" d="M37.8,491l34.4,31.1c9.2,9.2,23,9.2,32.2,0L326,298.6c55.3,24,121.7,16.5,170.4-32.2
			c38.2-38.2,57.6-86.4,39.1-143L429.1,231.2L327,128.6L438,26.8c-56.3-20.2-117.3,2.3-152.3,40c-42,45.3-49.3,115.7-28.6,168.5
			L35.5,458.9C26.3,465.8,26.3,481.9,37.8,491z"/>
	</g>
</g>
</svg>
